<?xml version="1.0" encoding="UTF-8"?>
<svg id="Capa_1" data-name="Capa 1" xmlns="http://www.w3.org/2000/svg" viewBox="0 0 803.02 703.03">
  <defs>
    <style>
      .cls-1 {
        fill: #ffffff;
      }
    </style>
  </defs>
  <path class="cls-1" d="M423.47,65.9s-17.23.91-9.07-9.98c8.16-10.88,2.51-22.67-14.16-39.91-16.67,17.23-22.33,29.03-14.16,39.91,8.16,10.88-9.07,9.98-9.07,9.98-11.38-17.39-29.02-18.13-29.02-18.13,0,0,11.17,6.34,23.12,32.19,11.95,25.85,29.14,23.71,29.14,23.71,0,0,17.18,2.14,29.13-23.71,11.95-25.84,23.12-32.19,23.12-32.19,0,0-17.64.75-29.02,18.13Z"/>
  <path class="cls-1" d="M404.4,574.97l-1.15-.32c-117.06-32.9-162.66-114.74-180.31-177.61-19.05-67.85-10.65-126.97-10.29-129.45l.41-2.78,2.72-.7c67.72-17.44,58.57-103.5,58.47-104.37l-.3-2.56,2.14-1.43c50.54-33.86,125.08-35.48,128.23-35.54,3.29.05,77.82,1.68,128.37,35.54l2.14,1.43-.29,2.56c-.4,3.54-9.14,86.95,58.47,104.37l2.72.7.41,2.78c.37,2.49,8.76,61.6-10.29,129.45-17.65,62.87-63.26,144.72-180.31,177.61l-1.15.32ZM220.69,271.53c-1.39,12.39-5.9,65.36,10.48,123.49,24.76,87.88,83.04,145.46,173.23,171.16,90.29-25.72,148.6-83.4,173.31-171.43,16.31-58.1,11.8-110.86,10.4-123.22-64.8-18.83-63.19-94.91-62.19-110.12-48.46-31.14-120.86-32.74-121.59-32.75-.59.01-72.99,1.61-121.45,32.75,1,15.21,2.61,91.29-62.19,110.12Z"/>
  <path class="cls-1" d="M404.4,555.86l-.72-.21c-84.8-25.19-139.65-80.23-163.05-163.57-13.24-47.18-12.48-90.13-10.84-111.53l.12-1.6,1.5-.58c47.4-18.27,63.03-68.88,61.85-110.14l-.04-1.53,1.33-.75c43.97-24.92,103.19-27.19,109.79-27.37,6.77.19,66.15,2.59,109.95,27.37l1.33.75-.04,1.53c-1.19,41.26,14.43,91.86,61.82,110.13l1.5.58.12,1.6c1.63,21.75,2.36,65.29-11.13,112.61-23.57,82.76-78.33,137.43-162.75,162.51l-.72.21ZM234.73,282.51c-1.52,21.56-1.93,62.9,10.79,108.19,22.83,81.32,76.29,135.1,158.89,159.87,82.23-24.65,135.59-78.08,158.59-158.82,13.36-46.89,12.32-90.95,11.06-109.25-48.11-19.46-64.4-70.61-63.6-112.88-43.37-23.9-103.56-25.9-106.13-25.98-2.42.07-62.42,1.94-105.96,25.97.79,42.28-15.51,93.43-63.63,112.89Z"/>
  <g>
    <g>
      <path class="cls-1" d="M554.21,534.66c-8.14-21.52-30.03-14.67-33.92-3.01-5.8,17.4,8.05,50.98,73.78,23.89,0,0-31.72.64-39.86-20.88Z"/>
      <path class="cls-1" d="M581.81,504.44c-11.67-16.4-29.16-4.44-30.03,6.74-1.28,16.68,17.93,41.96,69.06.38,0,0-27.36,9.3-39.03-7.11Z"/>
      <path class="cls-1" d="M607.97,471.3c-13.48-10.87-25.9,4.13-24.28,13.93,2.45,14.63,24.26,31.03,59.19-18.46,0,0-21.44,15.4-34.91,4.54Z"/>
      <path class="cls-1" d="M651.68,423.29s-14.84,18.72-28.45,13.17c-13.62-5.54-20.96,10.43-17.55,18.23,5.11,11.68,26.92,19.64,46-31.41Z"/>
      <path class="cls-1" d="M649.51,385.45s-8.42,19.34-20.79,18.34c-12.38-1-15.16,14.1-10.74,19.65,6.6,8.29,26.23,9.14,31.53-37.99Z"/>
      <path class="cls-1" d="M625.03,391.09c6.95,4.96,22.86.64,17.74-38.53,0,0-2.9,17.67-13.03,20.02-10.12,2.36-9.35,15.19-4.71,18.52Z"/>
    </g>
    <g>
      <path class="cls-1" d="M255.07,534.66c8.14-21.52,30.03-14.67,33.92-3.01,5.8,17.4-8.05,50.98-73.78,23.89,0,0,31.72.64,39.86-20.88Z"/>
      <path class="cls-1" d="M227.46,504.44c11.68-16.4,29.17-4.44,30.04,6.74,1.28,16.68-17.93,41.96-69.06.38,0,0,27.35,9.3,39.02-7.11Z"/>
      <path class="cls-1" d="M201.31,471.3c13.48-10.87,25.9,4.13,24.28,13.93-2.44,14.63-24.26,31.03-59.19-18.46,0,0,21.44,15.4,34.91,4.54Z"/>
      <path class="cls-1" d="M157.59,423.29s14.83,18.72,28.46,13.17c13.62-5.54,20.95,10.43,17.54,18.23-5.11,11.68-26.92,19.64-46-31.41Z"/>
      <path class="cls-1" d="M159.77,385.45s8.42,19.34,20.79,18.34c12.38-1,15.16,14.1,10.74,19.65-6.6,8.29-26.22,9.14-31.53-37.99Z"/>
      <path class="cls-1" d="M184.25,391.09c-6.95,4.96-22.87.64-17.74-38.53,0,0,2.9,17.67,13.03,20.02,10.12,2.36,9.36,15.19,4.71,18.52Z"/>
    </g>
  </g>
  <g>
    <path class="cls-1" d="M105.61,595.96h286.22s-17.47-14.66-28.96-14.66c-29.97,0,25.47,14.66-56.44,7.33-35-3.14-200.82,7.34-200.82,7.34Z"/>
    <path class="cls-1" d="M697.21,595.96h-286.22s17.47-14.66,28.96-14.66c29.97,0-25.47,14.66,56.44,7.33,35-3.14,200.82,7.34,200.82,7.34Z"/>
  </g>
  <path class="cls-1" d="M686.11,683.6c-195.44,4.52-393.12,4.56-588.57,0,195.44-4.56,393.12-4.53,588.57,0h0Z"/>
  <g>
    <path class="cls-1" d="M38.02,617.28c7.72,0,16.58,1.76,16.58,10.96,0,5.55-3.99,8.75-8.07,9.1,6.31.46,11.53,4.78,11.53,11.44,0,9.18-8.58,12.53-18.47,12.53h-21.29v-.73h-21.29v-.73h.83c2.24,0,3.99-1.68,4.02-3.88v-34.83c-.04-2.27-1.78-3.86-4.02-3.86h-.83v-.73h19.72ZM36.55,658.4c5.23,0,9.59-2.79,9.59-10.27,0-7-4.4-10.11-10.44-10.06v-.64c4.46,0,7.91-2.42,7.91-8.48,0-6.57-3.33-8.8-7.99-8.8h-2.07v38.25h2.99Z"/>
    <path class="cls-1" d="M110.42,656.49c1.42,2.95,3.75,4.1,5.76,4.1h.55v.73h-21.57v-.73h.57c1.69,0,3.6-1.43,2.5-4.08l-2.85-6.71h-15.54l-2.93,6.8c-1.01,2.59.88,3.98,2.55,3.98h.57v.73h-14.66v-.73h.58c1.86,0,4.22-1.08,5.61-3.83l15.14-32.6c.51-1.13,3.2-6.83,3.42-8.9h.62l19.65,41.23ZM94.17,646.92l-6.49-15.29-6.58,15.29h13.08Z"/>
    <path class="cls-1" d="M202.17,639.33c0,14.15-10.42,22.95-25.99,22.95s-25.95-8.79-25.95-22.95,10.42-22.98,25.95-22.98,25.99,8.77,25.99,22.98ZM190.88,639.33c0-12.42-5.76-20.09-14.7-20.09s-14.7,7.67-14.7,20.09,5.81,20.04,14.7,20.04,14.7-7.67,14.7-20.04Z"/>
    <path class="cls-1" d="M236.74,617.29c8.14,0,16.02,2.87,16.02,12.02,0,5.16-2.97,10.81-10.19,11.86,2.91.89,5.71,3.99,7.08,6.25.62,1.11,2.76,4.75,5.33,8.18,2.87,3.9,4.52,4.98,7.54,5v.74h-6.15c-7.97,0-11.72-1.54-15.22-7.04-1.62-2.62-4.25-7.54-4.92-10.01-1.23-3.07-3.04-4.39-4.4-4.5v-.62h1.88c3.04-.04,6.4-1.17,7.62-7.34.14-.58.31-1.64.25-3.07-.33-7.24-5.26-8.29-7.8-8.4-1.89-.09-3.36,0-4.19-.03v36.38c0,2.44,2.04,3.89,3.99,3.89h.8v.73h-20.2v-.73h.88c2.1,0,3.85-1.64,3.91-3.83v-34.93c-.04-2.2-1.75-3.81-3.86-3.81h-.92v-.74h22.56Z"/>
    <path class="cls-1" d="M314.21,653.66c-3.09,4.01-11.64,8.62-22,8.62-14.67-.07-24.2-8.64-24.2-23.04s9.32-22.88,24.64-22.88c6.77,0,14.07,1.32,18.2,3.34v11.66h-.57c-2.49-9.3-8.38-12.11-15.41-12.11-10.28,0-15.68,7.49-15.68,20.43,0,12.2,4.94,19.71,13.99,19.71,4.63,0,9.1-2.2,10.46-6.7l.09-8.85c0-1.85-1.22-2.89-3.23-2.89h-1.04v-.64h18.89v.64h-.93c-2.06,0-3.21,1.04-3.21,2.89v9.83Z"/>
    <path class="cls-1" d="M369.47,656.49c1.42,2.95,3.75,4.1,5.76,4.1h.55v.73h-21.57v-.73h.57c1.69,0,3.6-1.43,2.5-4.08l-2.85-6.71h-15.54l-2.93,6.8c-1.01,2.59.88,3.98,2.55,3.98h.57v.73h-14.66v-.73h.58c1.86,0,4.22-1.08,5.61-3.83l15.14-32.6c.51-1.13,3.2-6.83,3.42-8.9h.62l19.65,41.23ZM353.22,646.92l-6.49-15.29-6.58,15.29h13.08Z"/>
    <path class="cls-1" d="M436.7,617.29v.73h-1.24c-2.18,0-3.92,1.56-4.04,3.65v32.07c0,5.12.79,8.54.79,8.54h-.66l-33.72-29.7v24.26c.06,2.14,1.83,3.75,4.04,3.75h1.22v.73h-20.53v-.73h1.2c2.21,0,4.02-1.61,4.04-3.75v-32.25c0-4.98-.8-8.31-.8-8.31l.7.02,33.63,29.6v-24.12c-.02-2.14-1.78-3.75-4-3.75h-1.24v-.73h20.59Z"/>
    <path class="cls-1" d="M448.08,661.32v-.74h.87c2.29,0,4.21-1.68,4.23-3.9v-34.78c-.02-2.21-1.94-3.9-4.23-3.9h-.87v-.74h20.81v.74h-.85c-2.32,0-4.18,1.66-4.28,3.85v34.84c.08,2.21,1.95,3.88,4.28,3.88h.87v.74h-20.83Z"/>
    <path class="cls-1" d="M522.22,647.84l-3.18,13.48h-37.74v-.63l24.15-40.54h-15.68c-4.25.05-6.7,2.75-6.7,6.94v.64h-.75v-11.64c1.23.52,5.2,1.1,8.03,1.12h21.58c2.83,0,6.67-.46,7.51-.86v.56l-23.83,41.52h12.73c6.7-.06,11.02-4.08,13.12-10.59h.76Z"/>
    <path class="cls-1" d="M573.61,656.49c1.42,2.95,3.75,4.1,5.76,4.1h.55v.73h-21.57v-.73h.57c1.69,0,3.6-1.43,2.5-4.08l-2.85-6.71h-15.54l-2.93,6.8c-1.01,2.59.88,3.98,2.55,3.98h.57v.73h-14.66v-.73h.58c1.86,0,4.22-1.08,5.61-3.83l15.14-32.6c.51-1.13,3.2-6.83,3.42-8.9h.62l19.65,41.23ZM557.36,646.92l-6.49-15.29-6.58,15.29h13.08Z"/>
    <path class="cls-1" d="M624.18,627.73h-.75v-.68c.03-4.18-2.43-6.84-6.72-6.9h-8.48v36.6c.05,2.18,1.86,3.83,4.05,3.83h.78v.73h-20.28v-.73h.78c2.21,0,3.99-1.68,4.05-3.9v-36.54h-8.48c-4.29.06-6.71,2.71-6.71,6.9v.68h-.75v-11.64c1.21.46,4.97,1.12,7.7,1.12h27.09c2.75,0,6.77-.66,7.72-1.12v11.64Z"/>
    <path class="cls-1" d="M635.42,661.32v-.74h.87c2.29,0,4.21-1.68,4.23-3.9v-34.78c-.02-2.21-1.94-3.9-4.23-3.9h-.87v-.74h20.81v.74h-.85c-2.32,0-4.18,1.66-4.28,3.85v34.84c.08,2.21,1.95,3.88,4.28,3.88h.87v.74h-20.83Z"/>
    <path class="cls-1" d="M719.91,639.33c0,14.15-10.42,22.95-25.99,22.95s-25.95-8.79-25.95-22.95,10.42-22.98,25.95-22.98,25.99,8.77,25.99,22.98ZM708.61,639.33c0-12.42-5.76-20.09-14.7-20.09s-14.7,7.67-14.7,20.09,5.81,20.04,14.7,20.04,14.7-7.67,14.7-20.04Z"/>
    <path class="cls-1" d="M784.72,617.29v.73h-1.24c-2.18,0-3.92,1.56-4.04,3.65v32.07c0,5.12.79,8.54.79,8.54h-.66l-33.72-29.7v24.26c.06,2.14,1.83,3.75,4.04,3.75h1.22v.73h-20.53v-.73h1.2c2.21,0,4.02-1.61,4.04-3.75v-32.25c0-4.98-.8-8.31-.8-8.31l.7.02,33.63,29.6v-24.12c-.02-2.14-1.78-3.75-4-3.75h-1.24v-.73h20.59Z"/>
  </g>
  <g>
    <path class="cls-1" d="M344.88,80.13s-148.08,27.06-176.38,178.91c0,0,23.79-113.11,125.87-153.95,0,0,11.43,11.01,15.88,1.68,9.22-19.37,34.64-26.64,34.64-26.64Z"/>
    <path class="cls-1" d="M456.37,80.13s148.08,27.06,176.38,178.91c0,0-23.79-113.11-125.87-153.95,0,0-11.43,11.01-15.88,1.68-9.22-19.37-34.64-26.64-34.64-26.64Z"/>
  </g>
  <g>
    <circle class="cls-1" cx="236.75" cy="205.46" r="13.63"/>
    <circle class="cls-1" cx="572.66" cy="205.46" r="13.63"/>
  </g>
  <g>
    <circle class="cls-1" cx="236.75" cy="205.46" r="13.63"/>
    <circle class="cls-1" cx="572.66" cy="205.46" r="13.63"/>
  </g>
  <g>
    <path class="cls-1" d="M336.33,263.88c27.85,0,43.15,13.31,43.23,33.22-.08,16.85-10.8,26.98-22.02,30.19,21.15,3.15,34.06,18.65,34.04,38.33,0,22.44-16.69,37.34-46.29,37.34h-48.41l.03-1.99h2.51c6.91,0,12.52-5.5,12.72-12.36v-110.42c0-6.85-5.82-12.33-12.75-12.33h-2.48l-.03-1.97h39.45ZM344.59,395.7c20.39.09,32.11-11.43,32.09-31.52.02-29.78-25.61-34.74-44.84-34.71l-.05-1.87c12.12.04,32.78-3.53,32.85-29.08-.08-17.96-10.21-28.29-29.05-28.27h-10.5v125.45h19.48Z"/>
    <path class="cls-1" d="M505.97,388.44c4.02,8.84,11.37,12.51,17.45,12.51h1.66v1.99h-44.74v-1.97h1.75c5.13,0,10.45-4.52,7.55-12.47l-12.71-33.84h-53.51l-13.31,33.96c-2.8,7.87,2.49,12.35,7.59,12.35h1.75v1.97h-39.99v-1.99h1.79c6.04,0,13.39-3.66,17.4-12.49l45.06-106.91s7.36-16.09,7.36-20.46h1.79l53.11,127.36ZM474.7,348.7l-23.95-63.76-24.99,63.76h48.94Z"/>
  </g>
</svg>
