<?xml version="1.0" encoding="UTF-8"?>
<svg id="Capa_1" data-name="Capa 1" xmlns="http://www.w3.org/2000/svg" viewBox="0 0 1398.03 1218.99">
  <defs>
    <style>
      .cls-1, .cls-2 {
        fill: #ffffff;
      }

      .cls-2 {
        font-family: Cinzel-Bold, Cinzel;
        font-size: 127.4px;
        font-weight: 700;
      }
    </style>
  </defs>
  <path class="cls-1" d="M744.44,113.03s-29.91,1.57-15.75-17.31c14.17-18.88,4.35-39.35-24.58-69.26-28.93,29.91-38.76,50.38-24.58,69.26,14.16,18.88-15.75,17.31-15.75,17.31-19.75-30.18-50.36-31.47-50.36-31.47,0,0,19.39,11.01,40.12,55.86,20.75,44.86,50.57,41.15,50.57,41.15,0,0,29.82,3.71,50.56-41.15,20.74-44.85,40.13-55.86,40.13-55.86,0,0-30.62,1.3-50.36,31.47Z"/>
  <path class="cls-1" d="M711.35,996.55l-1.99-.56c-203.16-57.09-282.32-199.15-312.95-308.26-33.06-117.76-18.49-220.36-17.86-224.68l.71-4.82,4.72-1.22c117.53-30.27,101.66-179.63,101.49-181.14l-.51-4.45,3.72-2.49c87.72-58.76,217.08-61.58,222.54-61.68,5.71.09,135.07,2.91,222.79,61.68l3.72,2.49-.51,4.45c-.7,6.15-15.87,150.92,101.49,181.14l4.72,1.22.71,4.82c.63,4.31,15.2,106.92-17.86,224.68-30.63,109.11-109.79,251.17-312.94,308.26l-1.99.56ZM392.5,469.91c-2.42,21.5-10.25,113.44,18.18,214.33,42.98,152.53,144.13,252.46,300.66,297.05,156.7-44.64,257.9-144.74,300.8-297.54,28.31-100.84,20.47-192.41,18.05-213.85-112.47-32.68-109.66-164.73-107.94-191.12-84.11-54.05-209.76-56.82-211.03-56.84-1.03.02-126.68,2.79-210.79,56.84,1.73,26.4,4.53,158.45-107.93,191.12Z"/>
  <path class="cls-1" d="M711.35,963.39l-1.25-.37c-147.17-43.72-242.38-139.24-282.99-283.9-22.98-81.88-21.65-156.42-18.82-193.57l.21-2.78,2.6-1c82.27-31.71,109.39-119.54,107.34-191.16l-.08-2.65,2.31-1.31c76.32-43.25,179.09-47.19,190.55-47.5,11.75.33,114.82,4.49,190.82,47.51l2.31,1.31-.08,2.65c-2.06,71.61,25.04,159.42,107.3,191.14l2.6,1,.21,2.78c2.83,37.74,4.09,113.31-19.31,195.44-40.92,143.63-135.95,238.53-282.46,282.05l-1.25.37ZM416.87,488.96c-2.64,37.41-3.34,109.17,18.72,187.77,39.62,141.14,132.41,234.48,275.76,277.47,142.71-42.78,235.32-135.52,275.24-275.64,23.19-81.38,21.38-157.85,19.2-189.61-83.49-33.78-111.77-122.55-110.39-195.91-75.27-41.47-179.73-44.96-184.19-45.08-4.2.11-108.33,3.37-183.91,45.07,1.37,73.38-26.93,162.16-110.43,195.93Z"/>
  <g>
    <g>
      <path class="cls-1" d="M971.35,926.59c-14.13-37.34-52.11-25.45-58.87-5.22-10.07,30.19,13.96,88.47,128.04,41.46,0,0-55.06,1.11-69.17-36.25Z"/>
      <path class="cls-1" d="M1019.26,874.14c-20.26-28.46-50.61-7.71-52.12,11.69-2.22,28.94,31.11,72.83,119.86.65,0,0-47.48,16.15-67.73-12.35Z"/>
      <path class="cls-1" d="M1064.65,816.63c-23.4-18.86-44.96,7.17-42.14,24.17,4.24,25.39,42.1,53.86,102.73-32.05,0,0-37.21,26.72-60.58,7.87Z"/>
      <path class="cls-1" d="M1140.52,733.3s-25.75,32.5-49.38,22.86c-23.64-9.61-36.37,18.1-30.46,31.65,8.88,20.27,46.72,34.09,79.84-54.51Z"/>
      <path class="cls-1" d="M1136.74,667.63s-14.61,33.56-36.09,31.82c-21.49-1.73-26.32,24.47-18.64,34.11,11.46,14.39,45.52,15.87,54.73-65.93Z"/>
      <path class="cls-1" d="M1094.26,677.41c12.06,8.61,39.68,1.11,30.78-66.88,0,0-5.04,30.67-22.61,34.74-17.56,4.1-16.23,26.36-8.17,32.14Z"/>
    </g>
    <g>
      <path class="cls-1" d="M452.17,926.59c14.13-37.34,52.11-25.45,58.87-5.22,10.07,30.19-13.96,88.47-128.04,41.46,0,0,55.06,1.11,69.18-36.25Z"/>
      <path class="cls-1" d="M404.25,874.14c20.27-28.46,50.62-7.71,52.13,11.69,2.23,28.94-31.12,72.83-119.86.65,0,0,47.47,16.15,67.73-12.35Z"/>
      <path class="cls-1" d="M358.87,816.63c23.4-18.86,44.96,7.17,42.14,24.17-4.24,25.39-42.1,53.86-102.73-32.05,0,0,37.21,26.72,60.58,7.87Z"/>
      <path class="cls-1" d="M282.99,733.3s25.75,32.5,49.39,22.86c23.64-9.61,36.36,18.1,30.45,31.65-8.88,20.27-46.71,34.09-79.84-54.51Z"/>
      <path class="cls-1" d="M286.77,667.63s14.61,33.56,36.08,31.82c21.49-1.73,26.32,24.47,18.64,34.11-11.45,14.39-45.51,15.87-54.72-65.93Z"/>
      <path class="cls-1" d="M329.26,677.41c-12.07,8.61-39.68,1.11-30.78-66.88,0,0,5.04,30.67,22.61,34.74,17.57,4.1,16.24,26.36,8.18,32.14Z"/>
    </g>
  </g>
  <g>
    <path class="cls-1" d="M192.77,1032.99h496.76s-30.33-25.45-50.27-25.45c-52.01,0,44.21,25.45-97.95,12.71-60.75-5.45-348.54,12.73-348.54,12.73Z"/>
    <path class="cls-1" d="M1219.53,1032.99h-496.76s30.33-25.45,50.27-25.45c52.01,0-44.21,25.45,97.95,12.71,60.75-5.45,348.54,12.73,348.54,12.73Z"/>
  </g>
  <path class="cls-1" d="M1200.28,1185.08c-339.21,7.85-682.29,7.91-1021.5,0,339.21-7.92,682.29-7.86,1021.5,0h0Z"/>
  <text class="cls-2" transform="translate(30.35 1146.41)"><tspan x="0" y="0">ba organization</tspan></text>
  <g>
    <path class="cls-1" d="M608.04,137.71s-257.01,46.96-306.12,310.51c0,0,41.28-196.3,218.45-267.19,0,0,19.84,19.11,27.56,2.91,15.99-33.62,60.12-46.24,60.12-46.24Z"/>
    <path class="cls-1" d="M801.55,137.71s257.01,46.96,306.12,310.51c0,0-41.28-196.3-218.45-267.19,0,0-19.84,19.11-27.56,2.91-15.99-33.62-60.12-46.24-60.12-46.24Z"/>
  </g>
  <g>
    <circle class="cls-1" cx="420.37" cy="355.25" r="23.65"/>
    <circle class="cls-1" cx="1003.37" cy="355.25" r="23.65"/>
  </g>
  <g>
    <path class="cls-1" d="M593.21,456.63c48.34,0,74.89,23.1,75.02,57.65-.13,29.24-18.75,46.83-38.22,52.4,36.71,5.47,59.12,32.36,59.09,66.52,0,38.94-28.96,64.8-80.34,64.8h-84.01l.06-3.45h4.36c11.99,0,21.74-9.55,22.08-21.46v-191.64c0-11.89-10.1-21.41-22.14-21.41h-4.31l-.06-3.43h68.46ZM607.55,685.42c35.39.16,55.73-19.84,55.7-54.7.03-51.68-44.45-60.3-77.81-60.24l-.08-3.25c21.03.07,56.89-6.13,57.02-50.47-.13-31.17-17.72-49.1-50.41-49.06h-18.23v217.72h33.81Z"/>
    <path class="cls-1" d="M887.63,672.82c6.97,15.35,19.73,21.71,30.29,21.71h2.88v3.45h-77.64v-3.42h3.03c8.9,0,18.14-7.84,13.1-21.64l-22.05-58.73h-92.88l-23.1,58.94c-4.87,13.67,4.32,21.44,13.18,21.44h3.03v3.42h-69.4v-3.45h3.1c10.48,0,23.23-6.36,30.21-21.69l78.2-185.55s12.77-27.93,12.77-35.51h3.11l92.18,221.04ZM833.35,603.85l-41.56-110.67-43.37,110.67h84.93Z"/>
  </g>
</svg>
