<?xml version="1.0" encoding="UTF-8"?>
<svg id="Capa_2" data-name="Capa 2" xmlns="http://www.w3.org/2000/svg" viewBox="0 0 35.23 38.12">
  <defs>
    <style>
      .cls-1 {
        fill: #d5ad7f;
      }
    </style>
  </defs>
  <g id="Capa_1-2" data-name="Capa 1">
    <g>
      <path class="cls-1" d="M20.3,28.18c.33.31.61.81.6,1.28.39.38,4.83-1.88,5.5-2.23.97-.51,3.92-2.42,4.77-2.46,1.49-.06,2.56,1.44,2.08,2.84-.27.79-3.29,3.3-4.1,3.97-2.4,1.98-7.03,5.49-10.11,5.83-2.26.25-4.41-.61-6.63-.82-1.64-.16-3.32-.1-4.97-.19l-.19.09c-.02.65-.36,1.32-1,1.53-.38.12-2.85.14-3.28.05-.61-.13-1.05-.74-1.1-1.33-.26-2.66.21-5.74,0-8.45.12-.68.68-1.19,1.36-1.26s2.81-.08,3.33.24c.23.14.54.52.57.79,1.49-.2,2.65-.97,3.97-1.52,1.66-.68,2.68-.63,4.38-.08l-6.37-10.74.09-.56,3.95-3.93,8.94-.03,4.08,4.08v.44s-7.01,11.74-7.01,11.74c-.04.25.53.29.71.39.13.07.36.24.46.33ZM15.27,12.39h-1.55l-2.49,2.53h3.28l.75-2.53ZM15.83,14.92h3.56l-.86-2.52-1.73-.02-.15.06-.83,2.48ZM23.99,14.92l-2.49-2.53h-1.55l.75,2.53h3.28ZM14.38,16.14h-3.52l5.3,9-1.78-9ZM19.49,16.14h-3.75l1.92,9.19,1.83-9.19ZM24.37,16.14h-3.56l-1.73,9,5.3-9ZM7.2,35.18c2.4-.04,4.78.01,7.14.4,1.35.22,2.76.73,4.14.61,3.57-.29,9.42-5.1,12.06-7.54.41-.38,1.55-1.28,1.57-1.8s-.64-.95-1.13-.76c-2.92,1.52-5.91,3.61-9.11,4.49-.31.09-.98.12-1.18.22-.14.07-.42.57-.81.78-1.52.81-4.05-.67-6.06-.33-.56.09-2.23,1-2.23-.16,0-.63.91-.81,1.41-.94,2.48-.64,3.45.34,5.58.43,1.25.05,1.47-1.13.58-1.62-.59-.32-4.67-1.54-5.39-1.65-1.7-.25-2.94.9-4.44,1.43-.67.24-1.45.4-2.15.52v5.91ZM5.89,28.33h-2.67l-.14.14v8.16c0,.07.23.21.33.23.25.05,2.24.03,2.39-.04.08-.04.14-.12.17-.21l-.07-8.28Z"/>
      <path class="cls-1" d="M21.8,4.29c-.29.31-1.46.89-1.55,1.23.04.86,1.07,2.26.11,2.92-1.13.79-2.15-1.07-2.79-1.02-.71.06-1.59,1.89-2.73.94-1.06-.87.35-2.07.13-2.84-.18-.64-2.84-1.34-1.54-2.7.62-.65,1.79-.23,2.59-.42.5-.83.37-2.52,1.73-2.4,1.03.1,1.05,1.68,1.45,2.4.75.17,1.69-.16,2.38.24.61.36.69,1.12.22,1.64ZM17.71,1.89c-.24-.04-.15.02-.2.13-.23.51-.16.89-.66,1.31-.6.51-1.02.4-1.73.43-.11,0-.26-.06-.23.09,1.34.59,1.59,1.69,1.13,3,.06.07.82-.56,1.03-.61,1-.26,1.5.2,2.25.71-.25-.76-.55-1.66.05-2.35l.99-.84c-1.4.19-2.5-.4-2.63-1.88Z"/>
      <path class="cls-1" d="M4.53,14.97c1.2,0,1.09,1.64,1.59,2.4.83.3,2.43-.35,2.8.77.42,1.27-1.22,1.57-1.79,2.39.02.88,1.2,2.32.02,2.92-1.16.59-1.96-1.07-2.7-1.02-.64.04-2,2.06-2.91.75-.65-.93.53-2,.31-2.74-.18-.61-2.57-1.08-1.62-2.5.63-.95,2.01-.16,2.63-.56.54-.35.29-2.4,1.68-2.4ZM7.2,18.77c-1.44.15-2.46-.49-2.63-1.97-.25.21-.26.62-.42.94-.45.9-1.36,1.09-2.3,1.03,1.27.81,1.58,1.66,1.03,3.09,1.21-.94,2.03-.95,3.23,0,.06-.3-.18-.59-.23-.9-.08-.61.03-1.06.42-1.53l.88-.66Z"/>
      <path class="cls-1" d="M30.34,15.04c1.83-.42,1.43,2.07,2.09,2.37.73.33,2.18-.45,2.69.68.59,1.3-1.57,1.8-1.74,2.34-.23.76.96,1.8.31,2.74-.9,1.31-2.24-.67-2.91-.75s-1.44,1.54-2.64,1.06-.08-2.13-.04-2.96c-.53-.81-2.14-1.12-1.82-2.32.29-1.11,1.74-.64,2.54-.74.85-.11.55-2.2,1.52-2.42ZM33.37,18.77c-.87.07-1.84-.13-2.27-.97-.16-.32-.16-.79-.45-1-.16,1.42-1.12,2.11-2.53,1.97.19.33.61.42.85.7.64.77.33,1.64.09,2.49,1.15-1.04,2.07-1.08,3.28-.09-.54-1.42-.23-2.29,1.03-3.09Z"/>
      <path class="cls-1" d="M5.02,6.64c.5-.41.27-2.52,1.66-2.42,1.31.09,1.01,1.98,1.55,2.39.59.45,2.06-.39,2.66.52.93,1.4-1.43,1.96-1.62,2.6-.24.8,1.25,2.26-.03,2.97-.99.55-1.75-.7-2.59-1.05-.89.25-2.05,1.96-2.98.82-.73-.89.48-2.11.29-2.72s-2.88-1.46-1.51-2.72c.82-.75,2.05.02,2.56-.4ZM9.27,7.98c-.9.06-1.78-.03-2.25-.89-.18-.33-.18-.77-.46-.99-.17,1.47-1.2,2.07-2.63,1.88,1.27.84,1.66,1.72,1.03,3.19.75-.55,1.47-1.03,2.44-.61.17.08.85.69.94.61-.74-1.44-.26-2.31.94-3.19Z"/>
      <path class="cls-1" d="M32.77,6.98c.38.36.4.91.15,1.35-.28.48-1.63,1.08-1.69,1.5-.11.71,1.17,1.97.17,2.79-1,.82-1.9-.66-2.76-.98-.86.27-1.56,1.52-2.54,1.13-1.39-.55-.03-2.2-.13-2.96-.1-.7-2.49-1.21-1.68-2.62.57-1,2.11-.12,2.7-.58.46-.35.33-2.01,1.25-2.31,1.7-.56,1.38,1.95,2.1,2.35.61.34,1.75-.32,2.44.32ZM31.31,7.98c-1.47.19-2.4-.4-2.63-1.88-.31.28-.33.79-.58,1.16-.5.73-1.33.77-2.14.72.18.31.61.45.84.7.69.75.47,1.64.09,2.48.07.07.88-.59,1.07-.66.97-.34,1.56.14,2.3.66-.58-1.49-.29-2.35,1.03-3.19Z"/>
    </g>
  </g>
</svg>