<?xml version="1.0" encoding="UTF-8"?>
<svg id="Capa_2" data-name="Capa 2" xmlns="http://www.w3.org/2000/svg" viewBox="0 0 23.37 23.37">
  <defs>
    <style>
      .cls-1 {
        fill: #d5ad7f;
      }
    </style>
  </defs>
  <g id="Capa_1-2" data-name="Capa 1">
    <g>
      <path class="cls-1" d="M23.37,10.95v1.46c-.07.26-.06.56-.1.84-.18,1.33-.61,2.62-1.2,3.81,0,1.7.39,3.82-1.45,4.72-1.15.57-2.43.13-3.57.31-.25.04-.94.42-1.25.53-.81.3-1.7.53-2.55.64-.27.04-.57.03-.84.1-.48-.02-.98.03-1.46,0,0,0-.05-.04-.11-.05-.4-.03-1.47-.09-1.79-.26-.23-.12-.21-.51.05-.61.18-.08.82.11,1.07.14,8.46,1.04,14.94-7.19,11.68-15.14C18.81.06,8.94-1.65,3.56,4.27-1.72,10.07.62,19.29,7.87,22c.22.13.23.46,0,.59-.35.2-1.17-.44-1.56-.5-1.44-.23-2.96.45-4.22-.76-1.29-1.23-.59-2.83-.82-4.29-.04-.27-.41-.92-.53-1.25-.99-2.65-.99-5.54-.01-8.2.12-.32.51-1.02.55-1.28.23-1.44-.45-3.01.78-4.24s2.71-.52,4.18-.75c.25-.04,1.01-.46,1.34-.58,2.67-.99,5.54-.99,8.21-.01.33.12,1.13.55,1.37.59,1.46.23,2.98-.5,4.2.78s.53,2.78.76,4.22c.04.25.42.94.53,1.25.39,1.05.68,2.28.74,3.39ZM5.11,2.01h-1.57c-.55,0-1.53.98-1.53,1.53v1.57l1.41-1.71,1.69-1.39ZM21.36,5.11v-1.57c0-.55-.98-1.53-1.53-1.53h-1.57l1.71,1.41,1.39,1.69ZM2.01,18.25v1.57c0,.09.16.45.22.56.33.59,1.03,1.02,1.72,1.02h1.16c.03-.11-.02-.08-.06-.1-.55-.43-1.11-.82-1.61-1.31l-1.44-1.74ZM18.26,21.4h1.16c.69,0,1.39-.43,1.72-1.02.06-.1.22-.47.22-.56v-1.57l-.64.84c-.7.89-1.53,1.52-2.41,2.2-.04.03-.08,0-.06.1Z"/>
      <path class="cls-1" d="M17.74,4.49c.24.29.02.66-.36.57-.11-.03-.96-.7-1.18-.83-3.45-2.1-8.34-1.52-10.98,1.62-2.44,2.89.11,7.3,3.83,6.79,1.93-.26,2.38-1.62,3.95-2.25,2.85-1.15,5.95.49,6.64,3.44l.16,1.05c.97-2.52.74-5.4-.66-7.71-.13-.22-.8-1.06-.83-1.18-.09-.37.25-.6.55-.38.21.16.84,1.15,1,1.43,2.76,4.88.67,11.02-4.42,13.26-5.65,2.48-12.18-1.17-13.07-7.23C1.26,5.35,9.51-.36,16.33,3.51c.31.17,1.21.74,1.42.98ZM3.56,8.49c-1.45,3.75-.17,8,3.09,10.3,3.26,2.31,7.76,2.11,10.77-.54,4.1-3.62-.16-9.31-4.48-7.08-.76.39-1.25,1.09-1.99,1.52-2.87,1.66-6.49.04-7.22-3.15l-.16-1.05Z"/>
      <path class="cls-1" d="M8.35,6.54c2.53-.19,2.77,3.63.4,3.86-2.69.27-2.96-3.68-.4-3.86ZM8.39,7.22c-1.67.13-1.49,2.71.3,2.49,1.52-.18,1.3-2.62-.3-2.49Z"/>
      <path class="cls-1" d="M14.55,12.97c2.53-.34,3.12,3.19.86,3.78-2.71.72-3.37-3.44-.86-3.78ZM14.64,13.66c-1.7.25-1.04,3.13.77,2.37,1.27-.54.8-2.6-.77-2.37Z"/>
    </g>
  </g>
</svg>