<?xml version="1.0" encoding="UTF-8"?>
<svg id="Logos" xmlns="http://www.w3.org/2000/svg" viewBox="0 0 1053.42 644.76">
  <defs>
    <style>
      .cls-1 {
        fill: #141007;
      }
    </style>
  </defs>
  <path class="cls-1" d="M45.69,593.75c-2.55,0-4.62-2.04-4.66-4.58v-40.39c.07-2.51,2.13-4.53,4.66-4.53h.92v-.73s-22.1,0-22.1,0v.73h.94c2.53,0,4.59,2.02,4.65,4.54v40.38c-.05,2.54-2.12,4.58-4.66,4.58h-.92v.73s22.1,0,22.1,0v-.73h-.93Z"/>
  <path class="cls-1" d="M70.61,589.24l-18.1-24.73,14.16-16.81c1.88-2.13,4.76-3.51,7.94-3.52h.32v-.66h-16.7v.64h.7c2.01,0,2.96,1.84,1.73,3.47l-17.29,22.82c0,.1,11.64,16.1,13.02,17.98,4.76,6.19,13.58,6.03,15.65,6.03h5.99v-.72c-2.96-.07-5.21-1.57-7.42-4.51Z"/>
  <path class="cls-1" d="M102.62,593.75c-2.55,0-4.61-2.04-4.66-4.58v-40.39c.07-2.51,2.13-4.53,4.66-4.53h.92v-.73s-22.1,0-22.1,0v.73h.93c2.54,0,4.6,2.03,4.66,4.55v40.38c-.05,2.54-2.12,4.58-4.66,4.58h-.92v.73s22.1,0,22.1,0v-.73h-.93Z"/>
  <path class="cls-1" d="M147.24,543.46h-29.28c-3.13-.04-7.28-.76-8.63-1.32v12.69h.73v-.87c0-4.44,2.82-7.32,7.28-7.43h9.79v42.77c-.11,2.48-2.15,4.46-4.66,4.46h-.92v.73s22.11,0,22.11,0v-.73h-.93c-2.53,0-4.58-2.01-4.66-4.52v-42.71h9.78c4.47.11,7.29,2.99,7.28,7.43v.85h.73s0-12.68,0-12.68c-1.34.57-5.5,1.29-8.63,1.32Z"/>
  <path class="cls-1" d="M210.44,573.24h-.61c-2.27,14.31-7.94,19.19-19.14,19.2-10.84-.29-17.66-9.26-17.66-23.67s7.05-23.19,18.6-23.19c8,0,14.25,3.81,16.91,13.37h.61l-.14-12.49c-4.13-2.14-10.35-3.94-18.1-3.94-18.49,0-29.74,10.14-29.74,26.42s11.66,26.5,29.53,26.57c10.99,0,17.19-4.35,20.46-9.74l-.7-12.53Z"/>
  <path class="cls-1" d="M275.02,544.25h.92v-.73s-22.1,0-22.1,0v.73h.93c2.52,0,4.57,2.08,4.66,4.58v18.76h-23.6v-18.76c.07-2.51,2.13-4.58,4.66-4.58h.92v-.73s-22.1,0-22.1,0v.73h.93c2.54,0,4.6,2.06,4.66,4.58v40.35c-.05,2.54-2.12,4.58-4.66,4.58h-.92v.73s22.1,0,22.1,0v-.73h-.93c-2.55,0-4.61-2.04-4.66-4.58v-18.53h23.6v18.58c-.08,2.51-2.13,4.52-4.66,4.52h-.92v.73s22.1,0,22.1,0v-.73h-.93c-2.55,0-4.61-2.04-4.66-4.58v-40.35c.05-2.54,2.11-4.58,4.66-4.58Z"/>
  <path class="cls-1" d="M284.76,593.75h-.92v.73s37.68,0,37.68,0l3.35-14.85h-.73c-2.26,7.22-6.98,11.74-14.25,11.74h-9.56v-20.48h9.74c3.52.11,6.09,2.72,6.08,6.24v.63h.71s0-16.81,0-16.81h-.71v.64c.01,3.55-2.6,6.17-6.17,6.24h-9.65v-21.18h12.25c4.36.18,7.12,3.04,7.11,7.42v.86h.73s0-12.72,0-12.72c-1.35.57-5.55,1.3-8.69,1.32h-27.91v.72h.93c2.47,0,4.49,1.92,4.65,4.35v40.58c-.05,2.54-2.12,4.58-4.66,4.58Z"/>
  <path class="cls-1" d="M387.72,544.25h1.34v-.73s-22.06,0-22.06,0v.73h1.35c2.46,0,4.45,1.97,4.49,4.41v28.78l-36.72-35.01h-.72s.85,3.68.85,9.09v37.81c-.05,2.44-2.04,4.41-4.49,4.41h-1.34v.73s22.05,0,22.05,0v-.73h-1.35c-2.45,0-4.44-1.96-4.49-4.39v-28.89l36.78,35.02h.66s-.84-3.8-.84-9.29v-37.61c.08-2.42,2.06-4.35,4.49-4.35Z"/>
  <path class="cls-1" d="M415.02,578.74c0,12.66,14.21,16.47,25.38,16.47,6.05,0,10.73-1.28,14.28-3.43,6.95,4.01,14.77,3.14,20.12,2.7l-.03-.77c-3.77-1.13-7.92-4.5-13.26-9.14,2.42-4.46,3.27-9.87,3.12-15.28-.02-2.32.35-3.86,2.58-3.84h1.04v-.73h-17.02v.73h1.09c1.88-.02,3.37,1.04,4.46,3.32,1.61,3.38,1.76,7.92.49,12.1-3.32-2.76-8.09-6.98-11.17-9.67-7.98-6.97-12.32-11.45-12.32-17.09,0-4.96,3.41-8.53,8.29-8.53,6.58,0,9.15,6.01,9.19,12.55h.69l2.58-10.45c-2.48-3.48-8.7-5.14-14.37-5.17-9.08,0-17.64,4.05-17.64,13,0,3.65,1.19,6.96,3.2,10.11-4.92,1.6-10.71,5.5-10.71,13.14ZM426.52,577.28c-.2-3.67.77-6.22,1.94-8.03,2.55,3,5.75,5.91,9.25,8.92,2.71,2.35,8.82,7.54,13.71,11.32-2.22,1.63-4.99,2.64-8.28,2.64-8.33,0-16.13-5-16.61-14.85h0Z"/>
  <path class="cls-1" d="M497.63,593.75h-.92v.73s23.03,0,23.03,0c12.32,0,20.51-4.84,20.49-14.21.02-7.74-5.55-12.85-12.92-13.51,4.57-.56,8.94-4.09,8.95-10.76-.01-8.92-7.92-12.47-18.49-12.47h-21.07s.01.73.01.73h.92c2.52,0,4.58,2,4.66,4.51v40.46c-.07,2.51-2.13,4.53-4.66,4.53ZM513.22,546.66h2.08c5.59-.01,9.3,2.93,9.32,10.24-.01,7.35-4.36,9.98-8.94,9.97l.02.68c6.48-.01,12.03,3.31,12.01,11.82.02,8.26-4.63,11.82-11.1,11.78h-3.37s0-44.5,0-44.5Z"/>
  <path class="cls-1" d="M576.25,593.76h-.64v.72h23.19v-.73h-.61c-2.14,0-4.64-1.24-6.21-4.22l-21.64-47.46h-.66c-.18,2.12-3.06,8.43-3.58,9.54l-16.83,38.05c-1.55,2.89-4.06,4.1-6.12,4.1h-.66v.73h15.61v-.72h-.64c-1.88,0-3.98-1.66-2.78-4.57l3.72-8.99h17.08l3.58,8.99c1.11,2.91-.93,4.57-2.81,4.57ZM559.68,577.13l7.46-17.87,7.12,17.87h-14.58Z"/>
  <path class="cls-1" d="M639.62,554.82v-12.69c-1.34.57-5.5,1.29-8.63,1.32h-29.28c-3.13-.04-7.28-.76-8.63-1.32v12.69h.73v-.87c0-4.44,2.82-7.32,7.28-7.43h9.79v42.77c-.11,2.48-2.15,4.46-4.66,4.46h-.92v.73s22.11,0,22.11,0v-.73h-.93c-2.53,0-4.58-2.01-4.66-4.52v-42.71h9.78c4.47.11,7.29,2.99,7.28,7.43v.85h.73Z"/>
  <path class="cls-1" d="M701.11,544.25h.92v-.73s-22.1,0-22.1,0v.73h.93c2.52,0,4.57,2.08,4.66,4.58v18.76h-23.6v-18.76c.07-2.51,2.13-4.58,4.66-4.58h.92v-.73s-22.1,0-22.1,0v.73h.93c2.54,0,4.6,2.06,4.66,4.58v40.35c-.05,2.54-2.12,4.58-4.66,4.58h-.92v.73s22.1,0,22.1,0v-.73h-.93c-2.55,0-4.61-2.04-4.66-4.58v-18.53h23.6v18.58c-.08,2.51-2.13,4.52-4.66,4.52h-.92v.73s22.1,0,22.1,0v-.73h-.93c-2.55,0-4.62-2.04-4.66-4.58v-40.35c.05-2.54,2.11-4.58,4.66-4.58Z"/>
  <path class="cls-1" d="M730.86,593.76h-.92v.73s26.4,0,26.4,0c17.2,0,27.91-9.74,27.91-25.46s-10.71-25.5-27.91-25.5h-26.38s.01.72.01.72h.92c2.41,0,4.64,1.82,4.64,4.16v40.77c-.05,2.53-2.12,4.57-4.66,4.57ZM746.45,546.6h9c10.4,0,16.93,8.59,16.93,22.43s-6.49,22.36-16.93,22.36h-9v-44.78Z"/>
  <path class="cls-1" d="M791.51,593.75h-.92v.73s37.68,0,37.68,0l3.35-14.85h-.73c-2.26,7.22-6.98,11.74-14.25,11.74h-9.56v-20.48h9.74c3.52.11,6.09,2.72,6.08,6.24v.63h.71s0-16.81,0-16.81h-.71v.64c.01,3.55-2.6,6.17-6.17,6.24h-9.65v-21.18h12.25c4.37.18,7.12,3.04,7.11,7.42v.86h.73s0-12.72,0-12.72c-1.35.57-5.55,1.3-8.69,1.32h-27.91v.72h.93c2.47,0,4.49,1.92,4.65,4.35v40.58c-.05,2.54-2.12,4.58-4.66,4.58Z"/>
  <path class="cls-1" d="M867.44,568.36l-13.88-9.02c-3.05-1.98-5.25-3.9-5.07-6.77.18-3.91,3.8-7,9.53-7,6.16,0,10.25,3.32,10.26,8.38h.7l.95-10.7h-4.57c-3.32-.42-7.57-.75-9.91-.75-9.18,0-14.7,5.21-15.32,12.74-.53,5.31,1.96,9.74,6.97,13.06l12.68,8.42c3.91,2.6,5.82,4.57,5.82,7.52,0,4.56-3.73,8.07-10.06,8.18-8.73.14-14.31-6.12-13.73-13.71h-.64c-1.9,3.17-2.93,9.31-1.73,12.36,2.66,2.74,8.77,4.42,15.3,4.42,11.64,0,18.79-5.59,19.23-15.07.31-5.44-2.21-9.26-6.54-12.07Z"/>
  <path class="cls-1" d="M902.97,593.75c-2.55,0-4.61-2.04-4.66-4.58v-40.39c.07-2.51,2.13-4.53,4.66-4.53h.92v-.73s-22.1,0-22.1,0v.73h.93c2.54,0,4.6,2.03,4.66,4.55v40.38c-.05,2.54-2.12,4.58-4.66,4.58h-.92v.73s22.1,0,22.1,0v-.73h-.93Z"/>
  <path class="cls-1" d="M946.4,570.8h1.15c2.35,0,3.76,1.19,3.74,3.32v11.13c-1.72,4.6-6.97,7.19-12.34,7.2-10.72-.02-16.61-9.02-16.61-23.08,0-14.79,6.38-23.78,18.28-23.78,7.77,0,14.67,3.48,17.41,13.37h.61l-.14-12.49c-4.28-2.18-12.07-3.94-20.07-3.94-17.17,0-27.95,10.17-27.95,26.41s11,26.58,27.53,26.58c11.66,0,20.69-4.96,24.12-9.38v-12.03c-.05-2.11,1.27-3.3,3.63-3.3h1.09v-.73h-20.44v.73Z"/>
  <path class="cls-1" d="M1006.84,543.53v.73h1.35c2.46,0,4.45,1.97,4.49,4.41v28.78l-36.72-35.01h-.72s.85,3.68.85,9.09v37.81c-.05,2.44-2.04,4.41-4.49,4.41h-1.34v.73s22.05,0,22.05,0v-.73h-1.35c-2.45,0-4.44-1.96-4.49-4.39v-28.89l36.78,35.02h.66s-.84-3.8-.84-9.29v-37.61c.08-2.42,2.06-4.35,4.49-4.35h1.34v-.73s-22.06,0-22.06,0Z"/>
  <path class="cls-1" d="M844.01,518.74c-203.55-4.92-410.31-4.8-613.88-.55l-19.8.55s19.8.55,19.8.55c203.57,4.25,410.33,4.37,613.88-.55Z"/>
  <path class="cls-1" d="M230.13,619.05l-19.8.55s19.8.55,19.8.55c203.57,4.25,410.33,4.37,613.88-.55-203.55-4.92-410.31-4.8-613.88-.55Z"/>
  <path class="cls-1" d="M516.37,229.77c.02-20.08-13.16-35.89-34.73-39.1,11.44-3.27,22.39-13.61,22.47-30.8-.08-20.31-15.68-33.89-44.1-33.89h-40.25s.03,2.01.03,2.01h2.53c7.07,0,13.01,5.59,13.01,12.58v112.66c-.2,7-5.93,12.61-12.98,12.61h-2.56l-.03,2.03h49.39c30.2,0,47.23-15.2,47.23-38.09ZM448.55,260.47v-127.98h10.71c19.22-.02,29.56,10.52,29.63,28.84-.08,26.07-21.16,29.71-33.52,29.67l.05,1.91c19.61-.04,45.76,5.03,45.74,35.41.02,20.5-11.94,32.25-32.74,32.16h-19.88Z"/>
  <path class="cls-1" d="M504.01,265.83v2.03h40.8v-2.01h-1.78c-5.21,0-10.61-4.57-7.75-12.6l13.58-34.64h54.6l12.96,34.52c2.96,8.11-2.47,12.72-7.7,12.72h-1.78v2.01h45.64v-2.03h-1.69c-6.21,0-13.71-3.74-17.81-12.76l-54.19-129.93h-1.83c0,4.46-7.51,20.88-7.51,20.88l-45.97,109.07c-4.1,9.01-11.59,12.75-17.76,12.75h-1.82ZM576.73,147.47l24.43,65.05h-49.93l25.5-65.05Z"/>
  <polygon class="cls-1" points="749.94 263.12 749.9 263.12 749.95 263.18 749.94 263.12"/>
  <path class="cls-1" d="M218.93,432.01c2.09,2.88,4.77,5.34,7.73,7.21.32.19.64.39.97.58.18.85.37,1.7.57,2.56.11.46.18.92.3,1.38l.51,1.31,1.01,2.65c.46.81.9,1.64,1.36,2.47s.9,1.7,1.48,2.42c2.14,3.15,4.68,6.12,7.78,8.57,6.13,5,13.97,7.96,22.05,9.1,8.11,1.18,16.51.85,24.91-.3,8.42-1.18,16.87-3.2,25.3-5.78,4.23-1.26,8.47-2.76,12.66-4.17,4.21-1.41,8.47-2.79,12.82-4.12,9.65-3.01,19.62-5.83,29.81-8.82,13.35,10.17,27.1,19.59,41.74,27.42,5.41,2.85,10.94,5.48,16.58,7.81,5.67,2.26,11.47,4.21,17.4,5.73,11.83,2.88,24.36,3.96,36.38,1.45,5.98-1.2,11.83-3.13,17.2-5.92,2.72-1.22,5.41-3.01,7.87-4.9,2.49-1.93,4.76-4.24,6.58-6.93,1.84-2.65,3.23-5.67,4-8.86.78-3.16.94-6.44.6-9.58-.37-3.34-1.27-6.52-2.53-9.49.42-.37.83-.74,1.24-1.13,3.39-3.13,6.34-6.83,8.55-11.03,1,.39,2,.82,3.01,1.2.66-.25,1.29-.55,1.95-.81,2.19,4.03,5.04,7.61,8.32,10.63.41.39.81.76,1.24,1.13-1.26,2.97-2.16,6.15-2.53,9.49-.34,3.15-.18,6.42.6,9.58.76,3.18,2.16,6.21,4,8.86,1.82,2.69,4.08,5,6.58,6.93,2.46,1.89,5.14,3.68,7.87,4.9,5.37,2.79,11.23,4.72,17.2,5.92,12.02,2.51,24.56,1.43,36.38-1.45,5.92-1.52,11.72-3.47,17.4-5.73,5.64-2.33,11.17-4.97,16.58-7.81,14.64-7.83,28.39-17.25,41.74-27.42,10.18,2.99,20.15,5.82,29.81,8.82,4.35,1.33,8.61,2.71,12.82,4.12,4.19,1.41,8.43,2.92,12.66,4.17,8.43,2.58,16.88,4.6,25.3,5.78,8.4,1.15,16.79,1.48,24.91.3,8.08-1.15,15.91-4.1,22.05-9.1,3.09-2.46,5.64-5.43,7.78-8.57.58-.72,1.03-1.59,1.48-2.42s.9-1.66,1.36-2.47l1.01-2.65.51-1.31c.12-.46.19-.92.3-1.38.19-.87.39-1.71.57-2.56.34-.19.65-.39.97-.58,2.95-1.87,5.64-4.33,7.73-7.21,4.26-5.8,5.97-12.8,6.42-19.39.07-.83.05-1.64.09-2.48.04-.81.05-1.66,0-2.55-.04-1.75-.25-3.52-.6-5.27-.71-3.52-2.12-6.98-4.17-9.99-2.03-3.02-4.63-5.59-7.5-7.65-2.85-2.05-5.94-3.64-9.09-4.91-6.33-2.51-12.91-3.78-19.48-4.35-6.58-.55-13.21-.46-19.85.57-6.59,1.01-13.08,2.83-19.25,5.34-12.39,5.04-23.25,12.57-33.22,20.51-4.65,3.71-9.16,7.55-13.58,11.28-4.81-2-9.58-4.03-14.37-6.03-1.81-.76-3.67-1.49-5.52-2.22,1.31-1.42,2.03-2.43,2.03-2.43,0,0-9.55-8.59-20.06-7.44-1.41.15-2.74.52-4.04.96-.96-.4-1.93-.79-2.88-1.19,3.95-4.56,7.73-9.16,11.18-13.83,1.46.99,11.05,7.15,20.57,5.02,10.32-2.31,16.58-13.52,16.58-13.52,0,0-10.45-7.47-20.77-5.17-4.94,1.1-8.94,4.25-11.78,7.23,4.9-7.13,9.26-14.32,13.14-21.46.41.2,11.58,5.75,21.27,2,9.86-3.82,14.39-15.83,14.39-15.83,0,0-11.44-5.83-21.3-2.03-5.05,1.95-8.69,6.05-11.05,9.59,4.13-8.13,7.64-16.14,10.65-23.89,1.69.53,12.63,3.7,21.15-1.04,9.23-5.15,12.04-17.68,12.04-17.68,0,0-12.14-4.18-21.38.96-3.97,2.22-6.75,5.8-8.64,9.16,2.85-8.17,5.14-15.95,6.97-23.13.42.05,12.83,1.57,20.73-5.2,8.02-6.89,8.29-19.73,8.29-19.73,0,0-12.73-1.69-20.76,5.19-2.48,2.13-4.22,4.83-5.44,7.54.83-4.04,1.51-7.79,2.06-11.2,3.28-2.91,8.26-8.36,9.25-15.26,1.49-10.47-6.78-20.31-6.78-20.31,0,0-10.67,7.14-12.17,17.61-1.05,7.37,2.72,14.4,5.06,17.93-.61,4.96-1.51,10.74-2.81,17.18.12-4.4-.5-10.46-3.94-15.29-6.13-8.61-18.91-10.04-18.91-10.04,0,0-2.82,12.52,3.31,21.15,5.34,7.5,15.7,9.55,18.29,9.96-1.74,7.64-4.04,16.02-7.09,24.88.61-4.24.64-9.79-1.86-14.65-4.83-9.41-17.26-12.65-17.26-12.65,0,0-4.59,11.99.23,21.4,4.15,8.07,13.86,11.6,16.54,12.44-2.9,7.71-6.38,15.71-10.52,23.85,1.24-4.12,2.13-9.71.33-14.97-3.43-10.01-15.27-15-15.27-15,0,0-6.26,11.2-2.84,21.22,2.97,8.64,12.19,13.54,14.64,14.71-4.1,7.5-8.79,15.07-14.15,22.6,1.92-3.93,3.8-9.59,2.72-15.31-1.95-10.4-12.95-17.04-12.95-17.04,0,0-7.81,10.19-5.86,20.59,1.71,9.08,10.31,15.3,12.46,16.72-3.54,4.69-7.37,9.35-11.47,13.96-.72-.31-1.45-.62-2.17-.93.8-2.33,1.31-4.86,1.2-7.5-.45-10.57-10.37-18.73-10.37-18.73,0,0-8.72,8.53-8.74,18.75-9.27-3.72-18.6-7.08-28.06-9.72,2.74-2.76,5.47-5.52,8.07-8.43,33.29-37.06,51.98-85.67,56.4-135,3.52-39.47-4.89-78.53-10.36-117.21-3.46-23.05-6.57-69.51-9.04-93.18h-264.13s-6.46,0-6.46,0c-.06,1.14-5.54,61.55-5.72,64.47-3.9,48.55-18.03,96.69-13.64,145.94,3.59,39.51,16.14,78.4,38.17,111.52,7.62,11.42,16.38,21.95,26,31.64-10.12,2.77-20.08,6.39-29.98,10.38.21-10.4-8.75-19.15-8.75-19.15,0,0-9.93,8.16-10.37,18.73-.12,2.78.45,5.45,1.33,7.87-.64.27-1.28.55-1.92.82-.03.02-.07.03-.1.04-4.2-4.7-8.12-9.47-11.74-14.26,2.14-1.43,10.75-7.64,12.46-16.72,1.95-10.4-5.86-20.59-5.86-20.59,0,0-11,6.64-12.95,17.04-1.08,5.72.81,11.38,2.72,15.31-5.36-7.53-10.05-15.11-14.15-22.6,2.45-1.17,11.67-6.07,14.64-14.71,3.42-10.01-2.84-21.22-2.84-21.22,0,0-11.84,5-15.27,15-1.8,5.26-.92,10.84.32,14.97-4.14-8.14-7.62-16.15-10.52-23.85,2.68-.84,12.39-4.37,16.54-12.44,4.82-9.41.23-21.4.23-21.4,0,0-12.43,3.25-17.26,12.65-2.5,4.87-2.47,10.42-1.86,14.65-3.05-8.86-5.35-17.24-7.09-24.88,2.59-.41,12.95-2.46,18.29-9.96,6.13-8.63,3.31-21.15,3.31-21.15,0,0-12.77,1.43-18.9,10.04-3.44,4.83-4.06,10.89-3.94,15.29-1.3-6.43-2.19-12.22-2.81-17.18,2.33-3.53,6.1-10.57,5.06-17.93-1.5-10.47-12.17-17.61-12.17-17.61,0,0-8.27,9.84-6.78,20.31.98,6.9,5.97,12.35,9.25,15.26.55,3.41,1.23,7.16,2.06,11.2-1.22-2.71-2.96-5.41-5.44-7.54-8.03-6.88-20.76-5.19-20.76-5.19,0,0,.26,12.84,8.29,19.73,7.9,6.77,20.31,5.25,20.73,5.2,1.82,7.18,4.11,14.96,6.97,23.13-1.88-3.36-4.66-6.95-8.64-9.16-9.24-5.14-21.38-.96-21.38-.96,0,0,2.81,12.53,12.04,17.68,8.52,4.74,19.46,1.58,21.15,1.04,3,7.75,6.52,15.76,10.65,23.89-2.36-3.54-6-7.64-11.05-9.59-9.86-3.8-21.3,2.03-21.3,2.03,0,0,4.53,12.02,14.39,15.83,9.69,3.75,20.87-1.8,21.27-2,3.88,7.14,8.24,14.33,13.14,21.46-2.84-2.98-6.84-6.12-11.78-7.23-10.32-2.3-20.77,5.17-20.77,5.17,0,0,6.26,11.21,16.58,13.52,9.51,2.13,19.11-4.03,20.57-5.02,3.52,4.77,7.39,9.47,11.44,14.13-.87.37-1.76.72-2.63,1.09-1.44-.54-2.94-.98-4.54-1.15-10.51-1.15-20.06,7.44-20.06,7.44,0,0,.83,1.15,2.3,2.72-1.61.64-3.23,1.27-4.81,1.93-4.79,2-9.56,4.03-14.37,6.03-4.42-3.73-8.93-7.57-13.58-11.28-9.97-7.94-20.83-15.47-33.22-20.51-6.17-2.51-12.66-4.33-19.25-5.34-6.65-1.03-13.28-1.11-19.85-.57-6.58.57-13.15,1.84-19.48,4.35-3.15,1.27-6.24,2.86-9.09,4.91-2.86,2.07-5.46,4.63-7.5,7.65-2.05,3.01-3.47,6.47-4.17,9.99-.35,1.75-.57,3.52-.6,5.27-.05.88-.04,1.73,0,2.55.04.83.02,1.64.09,2.48.44,6.59,2.16,13.59,6.42,19.39ZM336.88,451.21c-4.35,1.4-8.64,2.85-12.89,4.35-4.24,1.5-8.33,3.01-12.45,4.31-8.24,2.65-16.44,4.74-24.56,5.99-8.1,1.26-16.14,1.68-23.78.69-7.64-.95-14.83-3.57-20.47-8.03-2.85-2.17-5.22-4.84-7.25-7.71-.57-.69-.97-1.45-1.4-2.21l-1.29-2.23c-.32-.8-.64-1.57-.94-2.37l-.48-1.17c-.12-.41-.19-.81-.3-1.22,0-.02,0-.04-.02-.05,1.63.71,3.31,1.29,4.97,1.75,6.45,1.79,12.92,2.14,19.18,1.87,12.55-.57,24.47-3.32,35.98-6.58,8.75-2.51,17.29-5.43,25.63-8.56.76.48,1.49.95,2.21,1.43,5.96,4,10.82,7.67,14.6,10.78,3.84,3.09,6.66,5.53,8.56,7.21-1.79.57-3.55,1.15-5.32,1.71ZM230.69,432.19c0-.07.04-.16.05-.23.21-.78.41-1.54.6-2.32.28-.74.64-1.45.95-2.17.16-.35.28-.74.5-1.08l.65-.99c.44-.64.8-1.34,1.33-1.93,4.01-4.84,9.63-8.03,15.42-9.48,5.78-1.54,11.72-1.5,17.33-1.24,5.62.21,10.93,1.22,15.95,2.35,2.46.72,4.91,1.26,7.21,2.12,1.15.41,2.3.8,3.41,1.18,1.11.42,2.19.88,3.27,1.33,3.96,1.64,7.64,3.45,11.01,5.29-6.35,2.25-12.76,4.31-19.29,6.13-11.17,3.09-22.66,5.64-34.16,6.1-5.73.21-11.46-.18-16.69-1.66-2.74-.78-5.3-1.89-7.55-3.41ZM505.95,467.6c-1.38,1.98-3.13,3.77-5.14,5.3-2.05,1.54-4.15,2.95-6.65,4.05-4.79,2.46-10.01,4.12-15.33,5.14-10.71,2.17-22.05,1.17-33.04-1.57-5.5-1.43-10.94-3.29-16.3-5.48-5.36-2.25-10.62-4.77-15.82-7.55-12.36-6.68-24.2-14.62-35.78-23.28,4.95-1.48,9.94-3.02,14.96-4.65,1.45-.47,2.91-.97,4.37-1.47,1.09.16,2.19.24,3.32.2,6.64-.25,12.28-4.2,15.6-7.13,1.55-.58,3.08-1.18,4.64-1.74,5.56,4.03,11.4,7.92,17.61,11.59l.05-.08c4.73,2.88,9.74,5.52,15.08,7.74,7.48,3.11,15.59,5.37,24.11,6.31,8.66.92,17.82-.55,26.11-4.51,1.47-.69,2.92-1.48,4.31-2.33.67,1.94,1.13,3.92,1.34,5.92.53,4.83-.65,9.6-3.45,13.52ZM404.21,393.62c4.03-1.71,8.04-3.35,12.05-4.92-2.09,2.62-7.68,10.52-6.8,19.1.44,4.31,2.45,8.11,4.66,11.11-4.24-3.6-8.36-7.21-12.27-10.74-1.68-1.56-3.26-3.08-4.89-4.62,1.68-1.59,5.03-5.18,7.24-9.92ZM425.19,427.84c8.15-2.85,16.48-5.3,25.03-6.68,4.99-.83,10.06-1.1,15.12-1.01,5.04.28,10.08.97,14.96,2.42,1.26.3,2.37.81,3.57,1.2,1.17.44,2.4.8,3.43,1.41,2.14,1.13,4.35,2.51,6.36,4.03,4.01,3.09,7.67,6.79,10.47,11.03.76,1.17,1.45,2.35,2.09,3.59-1.43.95-2.93,1.82-4.47,2.56-7.44,3.69-15.77,5.18-23.71,4.46-14.12-1.3-26.99-6.52-38.27-13.17-2.08-1.26-4.06-2.55-6.06-3.84-2.93-1.95-5.79-3.94-8.52-6.01ZM526.14,426.35s0,.01,0,.02c0,0,0,0-.01,0,0,0,0,0,0-.01ZM530.97,404.01c.67-2.09,1.63-4.12,2.65-6.12.51-.99,1.15-1.93,1.72-2.92.62-.92,1.33-1.75,1.98-2.63,2.79-3.41,6.4-6.22,10.41-8.47,8.17-4.35,17.77-6.56,27.56-7.25,4.9-.39,9.88-.39,14.87,0,4.23.29,8.43.99,12.68,1.84-20.17,19.01-44.35,34.64-71.89,46.39-2.25-6.6-2.34-14,.02-20.85ZM521.51,424.31c-26.05-11.37-50.38-26.76-71.02-46.05,3.89-.75,7.75-1.38,11.63-1.64,4.99-.39,9.97-.39,14.87,0,9.79.69,19.39,2.9,27.56,7.25,4.01,2.25,7.62,5.06,10.41,8.47.65.88,1.36,1.71,1.98,2.63.57.99,1.2,1.93,1.72,2.92,1.03,2,1.98,4.03,2.65,6.12,2.3,6.66,2.28,13.84.2,20.31ZM540.48,439.42c-.07-.05-.12-.12-.19-.18-2.77-2.63-5.15-5.69-6.98-9.08,28.64-11.81,55.58-28.3,78.29-49.67,7.52,2.01,14.99,4.57,22.47,7.45-1.39,1.07-10.27,8.22-11.27,17.91-.62,6.1,2.01,11.8,4.34,15.56-7.67-2.7-15.62-5.08-24.03-6.54-5.32-.94-10.82-1.31-16.37-1.26-5.55.23-11.16.97-16.62,2.53-1.36.32-2.72.9-4.08,1.34-1.36.49-2.74.88-4.08,1.64-2.65,1.36-5.07,2.86-7.42,4.61-4.65,3.48-8.86,7.65-12.18,12.62-.65.99-1.29,2.02-1.86,3.06ZM654.82,404c-1.47,1.39-2.88,2.76-4.4,4.16-4.88,4.41-10.03,8.94-15.44,13.41,2.93-3.23,6.27-8.06,6.86-13.78.96-9.36-5.77-17.89-7.26-19.66,4.08,1.58,8.17,3.23,12.27,4.96,2.42,5.51,6.52,9.58,7.98,10.91ZM611.26,438.4c-10.97,6.3-23.4,11.2-37.01,12.46-7.94.72-16.26-.76-23.71-4.46-1.54-.74-3.04-1.61-4.47-2.56.64-1.24,1.33-2.42,2.09-3.59,2.79-4.24,6.45-7.94,10.47-11.03,2.02-1.52,4.23-2.9,6.36-4.03,1.03-.62,2.26-.97,3.43-1.41,1.2-.39,2.32-.9,3.57-1.2,4.88-1.45,9.92-2.14,14.96-2.42,5.06-.09,10.13.18,15.12,1.01,8.41,1.36,16.59,3.76,24.61,6.54-4.98,3.54-10.14,7.01-15.65,10.32l.24.38ZM638.62,467.49c-5.2,2.78-10.47,5.3-15.82,7.55-5.36,2.19-10.8,4.05-16.3,5.48-11,2.74-22.33,3.75-33.04,1.57-5.32-1.03-10.54-2.69-15.33-5.14-2.49-1.1-4.6-2.51-6.65-4.05-2.02-1.54-3.77-3.32-5.14-5.3-2.79-3.92-3.98-8.7-3.45-13.52.21-2,.67-3.98,1.34-5.92,1.4.85,2.85,1.64,4.31,2.33,8.29,3.96,17.45,5.43,26.11,4.51,8.52-.94,16.64-3.2,24.11-6.31,7.48-3.11,14.34-7.04,20.63-11.3,2.64-1.79,5.16-3.65,7.64-5.53,1.28-.89,2.58-1.77,3.83-2.68.11.04.22.09.34.13,1.08.39,2.15.81,3.23,1.21,3.18,2.95,9.2,7.51,16.33,7.78,1.37.05,2.71-.07,4.02-.3,1.56.53,3.12,1.07,4.66,1.57,5.02,1.63,10.01,3.16,14.96,4.65-11.58,8.66-23.42,16.6-35.78,23.28ZM821.19,441.63c-.11.41-.18.81-.3,1.22l-.48,1.17c-.3.8-.62,1.57-.94,2.37l-1.29,2.23c-.42.76-.83,1.52-1.4,2.21-2.03,2.86-4.4,5.53-7.25,7.71-5.64,4.46-12.84,7.07-20.47,8.03-7.64.99-15.68.57-23.78-.69-8.11-1.26-16.32-3.34-24.56-5.99-4.12-1.31-8.2-2.81-12.45-4.31-4.24-1.5-8.54-2.95-12.89-4.35-1.77-.57-3.54-1.15-5.32-1.71,1.89-1.68,4.72-4.12,8.56-7.21,3.78-3.11,8.64-6.79,14.6-10.78.72-.48,1.45-.95,2.21-1.43,8.34,3.13,16.88,6.05,25.63,8.56,11.51,3.25,23.42,6.01,35.98,6.58,6.26.27,12.73-.09,19.18-1.87,1.66-.46,3.34-1.04,4.97-1.75-.02.02-.02.04-.02.05ZM814.04,435.6c-5.23,1.49-10.96,1.87-16.69,1.66-11.49-.46-22.98-3.01-34.16-6.1-6.52-1.82-12.94-3.89-19.29-6.13,3.38-1.84,7.05-3.64,11.01-5.29,1.08-.44,2.16-.9,3.27-1.33,1.11-.39,2.26-.78,3.41-1.18,2.3-.87,4.76-1.4,7.21-2.12,5.02-1.13,10.32-2.14,15.95-2.35,5.6-.27,11.54-.3,17.33,1.24,5.78,1.45,11.4,4.63,15.42,9.48.53.58.88,1.29,1.33,1.93l.65.99c.21.34.34.72.49,1.08.32.72.67,1.43.95,2.17.19.78.39,1.54.6,2.32.02.07.05.16.05.23-2.25,1.52-4.81,2.63-7.55,3.41ZM763.04,389.01c5.62-2.28,11.46-3.92,17.38-4.83,5.87-.92,11.95-1.01,17.91-.53,5.94.51,11.79,1.68,17.11,3.78,5.29,2.07,9.99,5.23,12.83,9.49,1.45,2.12,2.44,4.49,2.95,7.04.55,2.53.55,5.22.39,8.11-.35,5.64-1.79,11.03-4.79,15.13-.83,1.15-1.79,2.19-2.83,3.11-.16-.55-.3-1.08-.46-1.61-.32-.85-.74-1.64-1.11-2.46-.19-.41-.35-.83-.58-1.2l-.76-1.1c-.51-.72-.94-1.52-1.54-2.16-4.56-5.32-10.73-8.59-16.9-10.02-6.21-1.5-12.3-1.33-18-.94-5.75.32-11.14,1.45-16.21,2.7-2.49.8-4.99,1.38-7.28,2.32-1.17.42-2.32.85-3.45,1.26-1.13.46-2.21.95-3.29,1.43-4.3,1.89-8.22,3.94-11.81,6.03h-.02c-4.1-1.45-8.17-2.97-12.2-4.53-2.9-1.11-5.78-2.26-8.66-3.41,12.92-10.89,26-21.41,41.31-27.63ZM715.31,422.07c4.07,1.7,8.18,3.38,12.34,5,2.26.88,4.54,1.77,6.84,2.62-.58.39-1.15.78-1.7,1.17-5.89,4.15-10.66,7.94-14.39,11.16-3.77,3.16-6.54,5.69-8.4,7.41-.02.02-.04.04-.05.04-6.79-2.14-13.68-4.24-20.67-6.36,4.61-3.59,9.18-7.25,13.7-10.94,4.17-3.25,8.26-6.65,12.32-10.08ZM706.72,418.43c-2.99,2.44-5.96,4.9-8.93,7.35-5.98,4.9-11.97,9.72-18.01,14.37-5.5-1.71-11.04-3.51-16.6-5.37,4.29-2.48,7.06-5.36,7.06-5.36,0,0-8.2-9.88-18.77-10.28-4.14-.16-8.02,1.18-11.22,2.85,6.09-4.94,11.77-10.06,17.05-15.33,1,.87,10.06,8.43,19.98,7.35,3.72-.41,7.05-1.99,9.81-3.85.38.15.76.3,1.14.45,2.55.97,5.11,2.05,7.69,3.15,3.57,1.54,7.18,3.09,10.8,4.65ZM434.39,361.67c-31.34-36.14-48.47-83.21-51.87-130.63-2.71-38.52,6.31-76.5,12.35-114.52,3.14-18.16,6.87-58.06,9.35-80.93h245.04c1.62,15.17,5.51,51.72,5.51,51.73,4.62,47.94,19.58,95.34,16.21,143.7-3.95,56.72-26.18,105.23-62.64,142.08-.64-.14-1.26-.32-1.9-.45-10.47-2.26-21.27-2.99-31.63-2.05-10.39.88-20.68,3.31-29.84,8.31-4.51,2.58-8.66,5.9-11.93,9.99-.78,1.06-1.61,2.1-2.3,3.18-.62,1.1-1.31,2.16-1.89,3.29-.99,1.96-1.89,3.96-2.6,6.05-.04.11-.07.22-.11.33-.04-.11-.07-.22-.11-.33-.71-2.09-1.61-4.08-2.6-6.05-.58-1.13-1.27-2.19-1.89-3.29-.69-1.08-1.52-2.12-2.3-3.18-3.27-4.08-7.42-7.41-11.93-9.99-9.16-5-19.45-7.43-29.84-8.31-10.36-.94-21.16-.21-31.63,2.05-.34.07-.67.16-1,.24-3.61-3.62-7.11-7.34-10.44-11.22ZM519.16,429.82c-1.86,3.53-4.31,6.7-7.17,9.42-.07.05-.12.12-.19.18-.57-1.04-1.2-2.07-1.86-3.06-3.32-4.97-7.53-9.14-12.18-12.62-2.35-1.75-4.77-3.25-7.42-4.61-1.34-.76-2.72-1.15-4.08-1.64-1.36-.44-2.72-1.03-4.08-1.34-5.46-1.56-11.07-2.3-16.62-2.53-5.55-.05-11.05.32-16.37,1.26-8.88,1.54-17.23,4.11-25.3,7,2.39-3.74,5.27-9.66,4.63-16.02-.94-9.1-8.83-15.97-10.95-17.66,8.01-3.1,16.01-5.83,24.06-7.93,22.45,21.17,49.18,37.82,77.55,49.56ZM356.37,413.78c2.58-1.1,5.14-2.17,7.69-3.15.18-.07.35-.14.53-.21,2.69,1.75,5.88,3.21,9.44,3.6,9.92,1.08,18.98-6.49,19.98-7.35,5.28,5.27,10.96,10.39,17.05,15.33-3.2-1.67-7.08-3-11.22-2.85-10.56.39-18.77,10.28-18.77,10.28,0,0,2.94,3.04,7.42,5.56-5.35,1.79-10.69,3.52-15.98,5.17-6.05-4.65-12.04-9.48-18.01-14.37-2.97-2.46-5.94-4.91-8.93-7.35,3.62-1.56,7.23-3.11,10.8-4.65ZM349.3,432.15c4.53,3.69,9.09,7.35,13.7,10.94-6.98,2.12-13.88,4.23-20.67,6.36-.02,0-.04-.02-.05-.04-1.86-1.71-4.63-4.24-8.4-7.41-3.73-3.22-8.5-7-14.39-11.16-.55-.39-1.11-.78-1.7-1.17,2.3-.85,4.58-1.73,6.84-2.62,4.15-1.63,8.27-3.31,12.34-5,4.07,3.43,8.15,6.82,12.32,10.08ZM221.05,403.97c.51-2.55,1.5-4.91,2.95-7.04,2.85-4.26,7.55-7.43,12.83-9.49,5.32-2.1,11.17-3.27,17.11-3.78,5.96-.48,12.04-.39,17.91.53,5.92.9,11.76,2.55,17.38,4.83,15.31,6.22,28.39,16.74,41.32,27.63-2.88,1.15-5.76,2.3-8.66,3.41-4.03,1.56-8.1,3.08-12.2,4.53h-.02c-3.59-2.09-7.51-4.14-11.81-6.03-1.08-.48-2.16-.97-3.29-1.43-1.13-.41-2.28-.83-3.45-1.26-2.3-.94-4.79-1.52-7.28-2.32-5.07-1.25-10.47-2.39-16.21-2.7-5.69-.39-11.79-.57-18,.94-6.17,1.43-12.34,4.7-16.9,10.02-.6.64-1.03,1.43-1.54,2.16l-.76,1.1c-.23.37-.39.8-.58,1.2-.37.81-.8,1.61-1.11,2.46-.16.53-.3,1.06-.46,1.61-1.04-.92-2-1.96-2.83-3.11-3.01-4.1-4.44-9.49-4.79-15.13-.16-2.9-.16-5.59.39-8.11Z"/>
  <polygon class="cls-1" points="301.36 263.12 301.35 263.18 301.4 263.12 301.36 263.12"/>
</svg>