<?xml version="1.0" encoding="UTF-8"?>
<svg id="Capa_2" data-name="Capa 2" xmlns="http://www.w3.org/2000/svg" viewBox="0 0 51.76 49.6">
  <defs>
    <style>
      .cls-1 {
        fill: #d5ad7f;
      }
    </style>
  </defs>
  <g id="Capa_1-2" data-name="Capa 1">
    <g>
      <path class="cls-1" d="M0,46.79c.14-.71,1.13-1.82,1.87-1.82h8.04v-12.13c-2.64,1.64-5.08-1.69-2.73-3.69l4.65-3.56v-7.24c-.79-.25-.95-.75-1.02-1.53-.06-.74-.14-2.64.72-2.93.46-.16,2.2-.2,2.38.34.32.98-.72,1.19-1.47,1.12v1.52h6.47v-1.52h-2.07c-.85,0-1.16-1.27-.38-1.5.28-.08,2.74-.08,3.12-.03,1.23.17,1.13,2.94.82,3.76-.25.66-.88.63-.88.69v1.42l5.18-3.96c.9-.5,2-.36,2.79.28l11.38,8.73c.71.76-.13,1.81-.97,1.18l-11.61-8.9-.65-.05L7.8,30.68c-.19.82.28,1.24,1.09.99l16.29-12.52c.75-.66,1.17-.14,1.8.3,5.4,3.84,10.51,8.32,15.88,12.22.78.31,1.38-.28,1.05-1.05-.19-.46-2.81-2.03-3.29-2.58-.46-.76.13-1.56,1.02-1.12.47.23,3.2,2.39,3.47,2.79.52.75.52,1.87,0,2.62-.76,1.08-2.21,1.21-3.28.51v12.13h8.04c.43,0,1.21.61,1.47.96,1.02,1.43.04,3.41-1.67,3.59H13.29c-1.09,0-1.09-1.51,0-1.52h36.19c1.03-.11,1-1.41,0-1.51H2.27c-.9.09-1.04,1.2-.18,1.5l7.82.07c.84.4.56,1.49-.35,1.48-2.39-.23-5.34.3-7.66-.03-.95-.14-1.62-.91-1.9-1.79v-.91ZM17.89,18.38h-4.45v5.96c1.49-1.09,2.91-2.33,4.45-3.34v-2.63ZM40.23,44.97v-13.39l-14.3-10.97-14.41,10.97v13.39h9v-10.97c0-.33.39-.83.76-.85,2.89.19,6.15-.27,9-.01.46.04.96.34.96.86v10.97h9ZM29.62,34.66h-7.48v10.31h7.48v-10.31Z"/>
      <path class="cls-1" d="M0,10.7v-.71c.2-.23.25-.45.51-.65.61-.47,1.91-.86,2.42-1.32.47-.43.94-1.95,1.42-2.52.51-.61,1.41-.61,1.92,0s.88,1.94,1.37,2.47c.4.43,1.97.95,2.52,1.42.61.51.61,1.41,0,1.92-.57.48-2.09.95-2.52,1.42-.48.53-.86,1.87-1.37,2.47-.51.61-1.41.61-1.92,0s-.94-2.07-1.42-2.52c-.74-.7-2.44-.89-2.93-1.98ZM5.31,6.96c-.52.6-.73,1.59-1.31,2.13-.3.28-2.07,1.14-2.07,1.26.62.5,1.58.74,2.12,1.31s.75,1.48,1.26,2.07c.51-.6.72-1.52,1.26-2.07s1.51-.79,2.12-1.31c0-.12-1.78-.98-2.07-1.26-.57-.54-.79-1.53-1.31-2.13Z"/>
      <path class="cls-1" d="M46.17,13.96c.99-.17,1.23.42,1.66,1.12.26.43.67,1.48.95,1.78.39.42,1.96.93,2.52,1.42.43.37.55.86.38,1.39-.29.89-2.21,1.29-2.85,1.9-.6.57-1.03,2.41-1.75,2.79-1.79.95-2.17-1.94-3.01-2.79-.62-.63-2.55-.99-2.85-1.9-.17-.53-.05-1.02.38-1.39.57-.49,2.11-.97,2.52-1.42.45-.49.84-1.81,1.33-2.41.21-.25.39-.43.72-.49ZM46.4,15.76c-.35.63-.72,1.67-1.21,2.18-.52.54-1.56.78-2.13,1.31,0,.13,1.88.98,2.16,1.27.47.49.74,1.57,1.22,2.11.13,0,.97-1.85,1.22-2.11.28-.29,2.16-1.15,2.16-1.27l-2.13-1.31-1.31-2.18Z"/>
      <path class="cls-1" d="M29.78.32c.54.53.93,1.96,1.45,2.54.56.64,2.62,1.12,2.89,1.96.56,1.8-2.08,1.98-2.89,2.88-.55.63-1.04,2.4-1.79,2.76-1.71.81-2.12-2.07-2.95-2.86-.61-.58-2.61-1.05-2.81-1.94-.41-1.77,2.04-1.87,2.86-2.75.64-.69,1.05-2.61,1.98-2.87.42-.12.93-.06,1.26.27ZM29.01,1.91c-.24-.06-.16.04-.22.13-.39.56-.73,1.62-1.18,2.05-.27.25-2.13,1.09-2.13,1.21.54.46,1.72.78,2.18,1.26s.82,1.54,1.16,2.13c.24.05.16-.03.22-.13.35-.55.75-1.64,1.18-2.05.27-.25,2.13-1.09,2.13-1.21-.54-.46-1.72-.78-2.18-1.26s-.82-1.54-1.16-2.13Z"/>
      <path class="cls-1" d="M13.62,33.16c.56-.12,3.48-.1,4.13-.02.68.08.81.55.86,1.16.13,1.53.14,4.44,0,5.97-.06.65-.17,1-.86,1.06-.55.05-4.08.06-4.38-.08-.31-.14-.4-.66-.43-.98-.13-1.5-.14-4.58,0-6.07.04-.44.18-.93.68-1.04ZM16.98,34.66h-2.43v5.16h2.43v-5.16Z"/>
      <path class="cls-1" d="M33.38,33.37c.1-.1.47-.21.63-.23.85-.09,3.1-.1,3.95,0,.31.04.52.16.7.41v7.38c-.12.35-.38.37-.7.4-.55.05-4.08.06-4.38-.08-.31-.14-.4-.66-.43-.98-.14-1.56-.13-4.51,0-6.07.02-.21.1-.69.23-.83ZM37.2,34.66h-2.38l-.15.15v5h2.53v-5.16Z"/>
      <path class="cls-1" d="M25.66,23.67c4.92-.29,5.3,7.09.78,7.55-5.4.56-5.76-7.26-.78-7.55ZM25.76,25.18c-2.97.17-2.83,4.99.57,4.52,2.63-.36,2.26-4.67-.57-4.52Z"/>
      <path class="cls-1" d="M27.57,39.63c1.48-.44,1.34,1.98.67,2.18-1.48.44-1.34-1.98-.67-2.18Z"/>
    </g>
  </g>
</svg>