<?xml version="1.0" encoding="UTF-8"?>
<svg id="Capa_2" data-name="Capa 2" xmlns="http://www.w3.org/2000/svg" viewBox="0 0 33.55 33.42">
  <defs>
    <style>
      .cls-1 {
        fill: #fff;
      }
    </style>
  </defs>
  <g id="Capa_1-2" data-name="Capa 1">
    <g>
      <path class="cls-1" d="M33.54,24.33c-.08.55-.57,1.21-1.04,1.48-3.92,2.23-7.61,4.91-11.66,6.87-5.02.24-10.1-.01-15.13.13-.25.29-.63.5-1.02.55-.68.08-2.58.09-3.25,0-.75-.11-1.35-.78-1.42-1.52v-11.99c.04-.68.61-1.41,1.29-1.52s2.68-.08,3.39-.02c.63.06,1.16.51,1.35,1.11h.64s0-7.85,0-7.85h-1.02s-.46-.27-.52-.33c-.36-.37-.42-1.03-.07-1.44C8.63,6.81,11.99,3.56,15.59.64c.59-.48,1.08-.94,1.86-.41,1.38.93,2.78,2.54,4.14,3.59.07.05.15.1.23.13V1.76s.27-.46.33-.52c.16-.16.46-.28.68-.3.64-.07,2.39-.08,3.01,0s1,.59,1.02,1.2v6.21c.68.72,2.37,1.46,1.66,2.66-.09.15-.5.53-.65.53h-1.02v11.73c1.32-.29,2.63-.97,3.93-1.28,1.36-.32,2.34.3,2.75,1.6-.02.23.03.5,0,.72ZM27.51,10.44L16.79,1.14,6.03,10.44h3.05c.16,0,.42.37.43.56s-.17.56-.36.56h-1.24l-.09,7.82c.04.13.61.16.78.2,1.27.35,2.02,1.08,3.14,1.67v-1.15c0-2.3,2.39-4.46,4.62-4.62,2.56-.18,5.47,1.92,5.47,4.62v4.88l3.93-1.34v-11.99l-.1-.1h-5.7c-.3,0-.49-.65-.26-.92.03-.04.31-.2.33-.2h7.5ZM25.74,7.3V2.15l-.1-.1h-2.72v2.92c.85.64,1.62,1.48,2.46,2.13.06.05.31.25.36.2ZM12.84,20.23c-.04.43.03.91,0,1.34,2.08.33,4.6-.62,6.15,1.21.7.82.85,1.73.66,2.78l1.04-.21c-.07-1.61.12-3.34.01-4.94-.35-5.07-7.42-5-7.86-.19ZM4.89,19.57c-.07-.08-.23-.14-.34-.15-.6-.07-2.35-.07-2.95,0-.3.04-.38.17-.47.44l-.02,11.84c0,.23.22.49.44.54.34.08,2.61.07,3,.01.23-.04.41-.22.47-.45l.03-11.77c0-.14-.06-.36-.16-.47ZM6.16,31.67h14.18c.2,0,.91-.34,1.12-.45,3.53-1.84,6.93-4.47,10.46-6.38.97-.63.39-2.05-.75-1.79-3.79,1.18-7.51,2.69-11.36,3.64-1.93.13-5.09-.39-6.76.38-.32.15-1.08.74-1.35.72-.44-.04-.65-.52-.41-.9.2-.31,1.44-.93,1.83-1.05,1.63-.54,3.52-.11,5.21-.29.83-1.3-.38-2.67-1.73-2.79-1.78-.15-3.35.28-5.11-.39-1.16-.44-2.51-1.84-3.73-1.84h-1.6v11.14Z"/>
      <path class="cls-1" d="M31.68,14.38c.44-.1.88.32.69.76-.04.1-.96,1.03-1.07,1.09-.51.29-1.03-.22-.77-.77.08-.16.99-1.05,1.15-1.08Z"/>
      <path class="cls-1" d="M30.96,16.87c.13-.02.27.05.38.12s.96.93,1.01,1.02c.27.51-.31,1-.8.74-.12-.06-.86-.82-.95-.95-.24-.38-.11-.86.36-.93Z"/>
      <path class="cls-1" d="M29.32,16.88c.41-.02.67.45.51.83-.03.07-.97,1-1.05,1.04-.53.28-.99-.19-.76-.76.09-.23,1.03-1.1,1.3-1.11Z"/>
      <path class="cls-1" d="M28.34,14.38c.19-.04.31-.01.47.09.09.06.99.95,1.02,1.01.23.55-.31,1.03-.84.71-.12-.07-.9-.84-.95-.95-.16-.32-.08-.78.3-.86Z"/>
      <path class="cls-1" d="M6.53,3.77c.39-.09.67.08.73.48.04.23.04,1.08,0,1.29-.13.6-1,.53-1.1.01-.04-.2-.03-1.23.01-1.43.04-.17.19-.32.36-.36Z"/>
      <path class="cls-1" d="M4.31,2.66c.2-.05,1.35-.04,1.53.01.45.15.44.96-.18,1.07-.24.04-1.12.05-1.33-.01-.51-.16-.53-.95-.02-1.07Z"/>
      <path class="cls-1" d="M7.65,2.66c.21-.05,1.34-.04,1.53.02.51.16.42.96-.18,1.07-.27.05-1.12.05-1.36-.05-.48-.19-.48-.93.02-1.04Z"/>
      <path class="cls-1" d="M6.53.43c.22-.05.51-.02.64.19s.15,1.32.09,1.59c-.13.57-1,.56-1.1-.06-.07-.41-.13-1.61.37-1.72Z"/>
      <path class="cls-1" d="M14.1,14.74c-.19-.22-.11-.6-.17-.85-.32-1.39-1.1-2.03-2.46-2.32-.37-.08-.87.04-.87-.57s.65-.5,1-.57c1.18-.24,2.1-1.06,2.33-2.26.06-.34-.07-.84.36-1.01.89-.37.78.87.94,1.39.3,1.01,1.19,1.64,2.19,1.87.35.08.72-.07.93.31.51.91-.89.83-1.39,1-.89.3-1.62,1.12-1.82,2.04-.08.38.05,1.08-.5,1.14-.17.02-.43-.02-.54-.15ZM14.61,9.72c-.1-.02-.1.02-.16.07-.23.23-.4.55-.69.82-.16.14-.37.25-.52.39.47.39,1.01.74,1.24,1.34.43-.48.81-1,1.37-1.34-.47-.33-1.01-.74-1.24-1.28Z"/>
    </g>
  </g>
</svg>