<?xml version="1.0" encoding="UTF-8"?>
<svg id="Capa_2" data-name="Capa 2" xmlns="http://www.w3.org/2000/svg" viewBox="0 0 36.88 36.93">
  <defs>
    <style>
      .cls-1 {
        fill: #fff;
      }
    </style>
  </defs>
  <g id="Capa_1-2" data-name="Capa 1">
    <g>
      <path class="cls-1" d="M29.82,0c.14.14.32.23.47.36,2.16,1.89,4.09,4.3,6.23,6.23l.34.52.02,27.72c-.1,1.13-.92,1.95-2.05,2.05l-26.84-.03c-.76-.37-.62-1.24.18-1.41h26.44c.3.07.83-.33.83-.61v-1.4h-6.52c-.27,0-.56-.48-.55-.75.01-.25.31-.69.55-.69h6.52V7.99h-4.72c-.72,0-1.84-1.12-1.84-1.84V1.44H8.1c-.26,0-.65.48-.61.76l-.02,6.61c-.32.78-1.18.72-1.42-.06V1.86c.17-.97.87-1.61,1.8-1.86h21.97ZM34.36,6.55l-4.03-4.03v3.42c0,.19.42.61.61.61h3.42Z"/>
      <path class="cls-1" d="M0,12.6l2.26-4.77c.25-.72-.4-2.87.67-3.01.36-.05.76.26.82.61.11.72-.12,1.67.05,2.4.73,1.66,1.66,3.24,2.26,4.95l-.03,4.58c-.23.41-.6.67-1.04.39-.08-.05-.36-.36-.36-.43v-3.85H1.44v18.08h3.17v-8.39c0-.21.5-.56.75-.55.22,0,.69.36.69.55v9.98h1.12s.39-.35.33-.46v-6.19c.26-.86,1.26-.8,1.44.07-.15,2.01.2,4.29,0,6.27-.15,1.51-1.56,1.93-2.88,1.77.11.96-.07,2.12-1.21,2.29-.68.1-3.03.1-3.69-.01-.58-.1-.97-.58-1.15-1.12V12.6ZM1.87,12.03h2.3l-1.19-2.38-1.12,2.38ZM4.61,32.99H1.44v2.45h3.17v-2.45Z"/>
      <path class="cls-1" d="M22.18,14.04v1.73h7.89c.28,0,.57.42.61.69.07.53-.08,3.32.02,3.48,2.17.56,3.04,3.18,1.54,4.91-1.25,1.43-3.53,1.36-4.68-.15-1.32-1.75-.41-4.24,1.69-4.75v-2.74h-7.06v2.74c2.16.51,3.04,3.14,1.59,4.86-1.34,1.58-3.95,1.36-4.94-.47s-.04-3.91,1.91-4.39v-2.74h-7.06v2.74c2.1.51,3.01,3,1.69,4.75-1.14,1.51-3.43,1.58-4.68.15-1.5-1.72-.63-4.35,1.54-4.91.1-.16-.06-2.95.02-3.48.04-.27.33-.69.61-.69h7.89v-1.73h-2.2c-.28,0-.7-.38-.69-.68.13-1.88-.17-3.99,0-5.84.03-.38.22-.64.61-.68,1.88.15,4.07-.2,5.91,0,.43.05.6.28.67.7-.11,1.81.17,3.83,0,5.61-.02.2-.07.49-.22.65-.08.09-.45.25-.54.25h-2.12ZM23.62,8.28h-4.32v4.32h4.21l.11-.11v-4.21ZM12.59,21.34c-1.59.27-1.57,2.85.06,3.07,2.55.35,2.5-3.51-.06-3.07ZM21.08,21.34c-1.59.27-1.57,2.85.06,3.07,2.54.35,2.49-3.51-.06-3.07ZM29.58,21.34c-1.61.27-1.58,2.85.06,3.07,2.54.35,2.49-3.51-.06-3.07Z"/>
      <path class="cls-1" d="M5.24,19.6c.75-.09,1.13.98.4,1.34-.98.48-1.46-1.21-.4-1.34Z"/>
      <path class="cls-1" d="M26.56,31.99c.75-.09,1.13.98.4,1.34-.98.48-1.46-1.21-.4-1.34Z"/>
    </g>
  </g>
</svg>