<?xml version="1.0" encoding="UTF-8"?>
<svg id="Capa_2" data-name="Capa 2" xmlns="http://www.w3.org/2000/svg" viewBox="0 0 35.99 36">
  <defs>
    <style>
      .cls-1 {
        fill: #fff;
      }
    </style>
  </defs>
  <g id="Capa_1-2" data-name="Capa 1">
    <g>
      <path class="cls-1" d="M27.91,36h-7.17c-.44-.19-.83-.44-.91-.96-.23-1.6.15-3.68,0-5.33.14-.52.59-.88,1.12-.92l.06-.08c-.1-1.74.11-3.27,1.12-4.72,1.1-1.57,2.52-1.69,4.02-2.66,1.31-.85,2.01-2.05,3.77-1.86.41.05.79.27,1.16.42.35-.9.69-1.85,1.11-2.72,1.31-2.7,4.36-1.21,3.72,1.05-.84,1.72-1.52,3.58-2.38,5.28-1.16,2.3-3.35,3.82-5.04,5.7.08.11.17.21.21.34.23.62.21,4.4.13,5.22-.07.65-.36.94-.91,1.23ZM22.22,28.82h4.89c1.37-1.54,3.14-2.92,4.47-4.46,1.42-1.66,2.11-4.64,3.22-6.56.15-.77-.83-1.22-1.31-.53s-.95,2.29-1.36,3.14c-.75,1.56-2.79,3.9-4.18,4.96-.71.55-1.37.07-1.01-.73.37-.5,3.52-3.35,3.49-3.67-.29-.36-.9-.37-1.33-.28s-2.04,1.49-2.65,1.85c-1.73,1.04-3.05.98-3.89,3.14-.08.22-.35,1.02-.35,1.2v1.93ZM27.63,30.02h-6.61v4.78h6.5l.11-.11v-4.68Z"/>
      <path class="cls-1" d="M0,17.36c.32-1.44,1.98-2.16,3.16-1.16.6.51,1.34,2.61,1.7,3.43.04.08.06.17.06.26.24-.04.43-.21.66-.28,1.99-.65,2.82.79,4.26,1.72,1.75,1.13,3.18,1.12,4.32,3.13.77,1.36.88,2.7.82,4.25l.06.08c.54.03.98.4,1.12.92-.15,1.65.22,3.74,0,5.33-.07.52-.47.77-.91.96h-7.17c-.55-.26-.85-.6-.91-1.23-.08-.81-.1-4.6.13-5.22.05-.13.13-.23.21-.34-1.13-1.25-2.49-2.37-3.61-3.62-1.47-1.64-2.68-4.7-3.56-6.77-.12-.29-.24-.59-.34-.89v-.56ZM13.78,28.82v-1.93c0-.18-.27-.98-.35-1.2-.84-2.16-2.16-2.1-3.89-3.14-.81-.49-1.45-1.17-2.16-1.63-.55-.36-1.3-.36-1.82.07-.02.32,3.17,3.18,3.53,3.71.37.68-.29,1.23-.96.75-.71-.51-2.62-2.54-3.2-3.27-.31-.39-.63-.88-.86-1.32-.5-.98-.97-2.77-1.55-3.59-.49-.69-1.44-.26-1.31.53,1.06,2.13,1.82,4.46,3.11,6.45l4.57,4.57h4.89ZM14.98,30.02h-6.61v4.68l.11.11h6.5v-4.78Z"/>
      <path class="cls-1" d="M17.84.01c.29-.06.51.08.77.18,2.91,1.13,5.7,2.63,8.6,3.77.31.13.4.47.42.77-.52,4.61,1.55,10.91-2.43,14.31-1.66,1.42-4.34,3.29-6.2,4.49-.64.42-1.09.7-1.8.14-3.61-3.12-8.56-4.34-8.84-9.86-.15-2.98.12-6.08,0-9.08.02-.33.13-.68.47-.8L17.84.01ZM17.98,1.28l-8.32,3.64-.04,9.53c.11,1.36.78,2.65,1.79,3.55l6.6,4.77,6.44-4.67c1.06-.92,1.75-2.18,1.9-3.58V5.09s-.11-.24-.11-.24l-8.27-3.58Z"/>
      <path class="cls-1" d="M23.81,31.94c.27.25.22.83-.14.98-.32.14-1.24.14-1.41-.25-.4-.94,1.1-1.14,1.54-.73Z"/>
      <path class="cls-1" d="M12.18,31.94c.44-.41,1.94-.2,1.54.73-.16.38-1.09.38-1.41.25-.35-.15-.41-.73-.14-.98Z"/>
      <path class="cls-1" d="M17.91,2.61c.17-.02.29.03.44.09,1.98,1.01,4.25,1.7,6.21,2.72.27.14.63.29.61.65-.18,2.71.23,5.7,0,8.37-.26,2.99-4.69,4.66-6.66,6.49-.24.2-.52.32-.82.14-1.66-1.4-3.85-2.53-5.46-3.96-.77-.69-1.28-1.64-1.41-2.67l.04-8.61.43-.34,6.62-2.88ZM23.96,6.48l-5.99-2.6-5.94,2.6v7.9c.12.98.64,1.55,1.37,2.13,1.44,1.14,3.08,2.15,4.56,3.25l.21-.07c1.45-1.22,3.37-2.22,4.77-3.45.57-.5.94-1.18,1.02-1.93v-7.83Z"/>
      <path class="cls-1" d="M21.56,7.19c.42-.02.81.47.58.85l-4.95,7.43c-.26.18-.46.16-.73.03-.39-.19-1.93-1.39-2.29-1.72-.17-.16-.4-.33-.39-.59.01-.35.36-.65.72-.59.38.06,2.01,1.57,2.16,1.5l4.65-6.82c.08-.04.17-.09.25-.09Z"/>
    </g>
  </g>
</svg>