<?xml version="1.0" encoding="UTF-8"?>
<svg id="Capa_2" data-name="Capa 2" xmlns="http://www.w3.org/2000/svg" viewBox="0 0 33.8 41.96">
  <defs>
    <style>
      .cls-1 {
        fill: #d5ad7f;
      }
    </style>
  </defs>
  <g id="Capa_1-2" data-name="Capa 1">
    <path class="cls-1" d="M19.8,22.7c.31-.07.54-.29.88-.14l5.89,5.81c.69.86-.58,1.29-.84,1.8-.03.07-.06.11,0,.17l6.55,6.56c.17.28.13.55-.04.82s-1.85,1.94-2.15,2.16c-.28.21-.44.29-.8.18l-6.8-6.64-3.8,3.78c-.06.07-.03.11,0,.17.26.51,1.25.75.98,1.59-.19.59-2.38,2.24-2.82,2.9l-.17.08-.93-.99,2.19-2.29-6.71-6.65L1.33,41.93c-.22.11-.85-.74-1.05-.9l10.51-10.59c.74-.51,1.04.2,1.22.17.16-.03.65-.64.68-.82.15-1.13-.22-2.9.01-3.94.09-.39.8-.82,1.03-1.17L.11,10.95c-.17-.28-.13-.55.04-.82s1.85-1.94,2.15-2.16c1.07-.79,1.82,1.13,2.67,1.53l6.92-6.9c2.48-1.93,4.02,1.48,5.75,2.68L22.75.18c.21-.19.49-.23.75-.14l10.25,10.25c.1.29.04.58-.18.8-2.54,2.19-4.83,5.29-7.39,7.39-2.4,1.98-4.05-1.27-5.68-2.6h-.17l-4.48,4.5,1.02,1.08c.26.05.82-1.08,1.48-1.06s1.52,1.64,1.45,2.29ZM23.2,1.77l-4.54,4.6,6.15,6.17c.8.91.82,2.04.08,2.99-.3.39-1.04.83-1.06,1.32s.43.9.92.83l7.26-7.16L23.2,1.77ZM22.26,12.14l-.09-.22L13.65,3.48c-.29-.1-.58-.04-.8.18L3.89,12.71l8.82,8.76,9.56-9.32ZM2.79,9.51c-.16.17-1.04.93-1.02,1.08l1.08,1.02,1.02-1.08-1.08-1.02ZM22.7,15.93c.2-.83,1.71-1.28,1.22-2.23-.64-1.24-1.94.57-2.45,1.06-.02.09.87,1,1,1.09.07.05.09.12.22.09ZM14.76,21.48l-1.02,1.08,1.08,1.02,1.02-1.08-1.08-1.02ZM18.31,22.26l-.26.13-3.91,3.92-.06,4.16-1.03,1.17,4.54,4.6,3.9-3.83-2.68-2.76c-.09,1.18-.49,2.32-1.33,3.16l-1.01-.84c.21-.5.57-.83.73-1.37.35-1.13.14-2.03-.48-3-.23-.36-.58-.42-.51-.97.07-.52,1.69-1.67,2.04-2.37s.29-1.28.07-1.99ZM20.39,24.29l-2.42,2.49,4.6,4.54,2.42-2.49-4.6-4.54ZM24.61,31.33c-.07.01-.95.9-.98.96s-.06.11,0,.17c.74.48,5.66,6.05,6.03,5.86.06-.03.9-.87.93-.93.03-.07.06-.11,0-.17l-5.97-5.89Z"/>
  </g>
</svg>