<?xml version="1.0" encoding="UTF-8"?>
<svg id="Capa_2" data-name="Capa 2" xmlns="http://www.w3.org/2000/svg" viewBox="0 0 37.25 41.65">
  <defs>
    <style>
      .cls-1 {
        fill: #d5ad7f;
      }
    </style>
  </defs>
  <g id="Capa_1-2" data-name="Capa 1">
    <g>
      <path class="cls-1" d="M23.56,31.15c.47-.16.89-.42,1.31-.66,2.13-1.19,4.25-2.63,6.41-3.75,1.63-.85,4.13-1.76,5.44.1,1.08,1.53.39,3.13-1,4.09-3.84,2.65-8.22,4.84-12.11,7.45-1.39.71-2.41.78-3.93.46-2.86-.6-5.75-1.72-8.63-2.29l-1,.6c.53.91,1.15,1.87.34,2.85-.24.28-2.4,1.52-2.77,1.6-.77.16-1.39-.17-1.84-.77-1.6-3.23-3.82-6.33-5.4-9.54-.42-.86-.63-1.62.18-2.37.26-.23,2.07-1.29,2.39-1.39,1.35-.42,1.97.47,2.52,1.51l6.03-3.45c2.64-1.29,5.4.45,7.97,1.21,1.2.36,2.88.46,3.72,1.4.76.86.77,1.91.38,2.94ZM9.29,35.93c.2.14,1.52-1.06,1.96-.74,2.95.62,6,1.85,8.95,2.38,1.25.23,1.85.11,2.96-.48l12.26-7.55c.73-.66.56-2.21-.51-2.4-1.14-.21-2.22.38-3.18.89-2.06,1.09-6.25,4.14-8.25,4.51-1.7.31-5.36-.67-7.06-1.26-1.06-.37-.77-1.42.04-1.39,1.36.2,3.9,1.42,5.19,1.16,1.03-.21,1.07-1.75.18-2.24-.51-.28-2.16-.53-2.87-.74-1.53-.45-4.23-1.76-5.69-1.62-1.28.13-5.25,2.58-6.53,3.37-.12.07-.64.36-.64.44l3.18,5.66ZM6.96,40.2c.28.28,1.08-.3,1.38-.47s1.19-.56,1.08-.94l-5.55-9.82c-.11-.19-.28-.2-.48-.16-.1.02-1.69.93-1.82,1.04-.08.07-.15.14-.2.23l-.02.15,5.61,9.96Z"/>
      <path class="cls-1" d="M22.4,19.34c-.76,1.51-1.37,3.12-2.13,4.63-.14.27-.39.93-.65,1.02s-.58.07-.8-.14c-.36-.34-1.26-2.42-1.53-2.5-.85,0-1.96.47-2.77.47-.56,0-.82-.46-.66-.98l2.48-5.32c-.85-.38-1.6-.72-1.97-1.64-.41-1-.09-1.53-.04-2.48.1-1.92-2.02-3.12-.57-5.11.41-.56,1.4-1.23,1.68-1.76.51-.97.22-2.17,1.2-3.08,1.19-1.1,2.69-.37,3.85-1.02.85-.48,1.35-1.28,2.46-1.4,1.85-.2,2.4,1.47,3.85,1.67,1.08.15,2-.1,2.94.67s.83,1.75,1.18,2.77c.41,1.19,1.64,1.53,2.1,2.69.78,1.98-.94,2.78-.88,4.41.01.36.15.81.17,1.17.06,1.44-.44,2.25-1.68,2.95l1.91,4.46c.72,2.28-2.73.31-3.42.65-.18.09-1.15,1.93-1.43,2.27-.26.32-.6.46-.97.21-.88-1.35-1.26-3-2.06-4.41-.71-.31-1.51-.56-2.24-.19ZM22.95,1.37c-.64.13-1.55,1.2-2.3,1.47-.86.32-2.37.05-3,.52-.56.42-.68,2.13-1.12,2.91s-1.58,1.4-1.82,2.04c-.36.99.79,2.06.94,3.08.12.86-.15,1.55-.15,2.33,0,1.45,1.72,1.46,2.65,2.14.89.66,1.39,2.51,2.52,2.52.86,0,1.76-.68,2.85-.59s2.38,1.15,3.28.08c.5-.59.77-1.4,1.43-1.93.66-.54,2.15-.83,2.53-1.42.48-.74-.08-2.13.05-3.06s1.16-2.04,1.06-2.87c-.09-.79-1.45-1.54-1.91-2.29-.51-.83-.48-2.44-1.15-2.97-.6-.47-2.15-.22-3.05-.56s-1.81-1.63-2.81-1.43ZM30.86,20.32l-1.56-3.44c-1.16.81-1.4,2.64-3.06,2.77l.92,2.27c.39-.31.9-1.69,1.28-1.87.58-.27,2.24.41,2.41.27ZM20.7,19.74c-.91,0-1.62-.46-2.18-1.13l-1.01-1.47-1.85,4.11c.13.12,2.29-.71,2.56-.08l1.05,1.76,1.43-3.19Z"/>
      <path class="cls-1" d="M3.72,30.26c.67.61-.37,1.63-.98.94s.34-1.53.98-.94Z"/>
      <path class="cls-1" d="M22.62,3.73c2.89-.27,5.71,1.56,6.5,4.36,1.83,6.51-6.33,10.81-10.64,5.69-3.15-3.74-.7-9.59,4.14-10.05ZM22.7,5.07c-6.51.69-5.07,10.86,1.53,9.51,5.84-1.19,4.53-10.15-1.53-9.51Z"/>
      <path class="cls-1" d="M21.34,12.05c-.27-.24-1.56-1.45-1.65-1.66-.29-.68.29-1.2.93-.93.24.1,1.25,1.37,1.39,1.37l3.79-3.42c.76-.39,1.37.38.87,1.04-1.34,1.09-2.57,2.49-3.91,3.57-.67.54-.77.61-1.42.04Z"/>
    </g>
  </g>
</svg>