<?xml version="1.0" encoding="UTF-8"?>
<svg id="Capa_2" data-name="Capa 2" xmlns="http://www.w3.org/2000/svg" viewBox="0 0 46.8 46.71">
  <defs>
    <style>
      .cls-1 {
        fill: #d5ad7f;
      }
    </style>
  </defs>
  <g id="Capa_1-2" data-name="Capa 1">
    <g>
      <rect class="cls-1" x="38.12" y="10.33" width="8.68" height="1.37"/>
      <path class="cls-1" d="M22.67,17.64v1.37h-8.36l-.1.19c.3,4.49,4.3,11.44,9.43,11.15,4.78-.27,8.64-6.98,8.73-11.34h-8.41v-1.37h9.87c.05,4.53-1.9,8.81-5.16,11.89-.74.69-1.04.4-.74,1.65.67,2.76,4.65,4.06,6.87,5.28.31.17,1.63.88,1.77,1.06.21.27-.47.89-.55,1.2l-5.64-2.96c-.22.15-.43.06-.64.14-1.8.64-3.95,2.21-5.79,3-.24.1-.49.25-.77.23l-6.93-3.27c-4.56,2.35-10.61,4.82-10.67,10.86h-1.37c-.04-5.1,3.93-8.14,7.98-10.35,2.04-1.11,6.21-2.6,6.69-5.19.22-1.16-.17-.94-.83-1.56-3.32-3.1-5.34-7.38-5.25-11.98h9.87ZM26.51,30.99c-2,.93-4.19.98-6.21.09-.22,1.66-1.44,2.81-2.56,3.93l5.67,2.61,5.48-2.84c-1.12-.97-2.21-2.25-2.38-3.79Z"/>
      <path class="cls-1" d="M30.98,2.57c.71,2.13.87,4.48.29,6.66.93.15,2.05.38,2.9.8.09.05.14-.02.12.15-.05.36-.63,1.45-.84,1.82-1.77,3.04-4.61,4.56-8.15,4.07-.53-.07-1.68-.5-2.02-.5-.23,0-.82.24-1.13.3-2.45.42-4.17.37-6.32-.94-1.9-1.16-3.34-2.86-4.49-4.75,1.2-.56,2.51-.8,3.8-1.04.11-.16-.21-1.63-.23-1.97-.06-.97.04-2.11.22-3.06.05-.25.33-1.49.47-1.54.75-.26,3.52.89,4.36,1.17.59-.74,1.04-1.56,1.66-2.28C21.8,1.25,23.04,0,23.17,0c1.41.92,2.37,2.37,3.31,3.74.77-.19,1.51-.57,2.3-.79.35-.1,1.98-.52,2.2-.38ZM23.19,1.84c-1.26,1.25-2.47,3.03-2.78,4.82-.47,2.74.97,5.21,2.86,7.06,2.69-2.71,3.91-5.91,1.89-9.47-.2-.36-1.69-2.45-1.97-2.4ZM21.21,13.53c-1.88-2.41-2.93-5.43-1.84-8.44-.06-.23-2.64-1.09-2.82-.97-1.02,3.96.52,8.19,4.65,9.41ZM29.98,4.12c-1.04.08-1.96.58-2.92.91.86,2.09.59,4.34-.38,6.34l-1.36,2.16c1.9-.59,3.63-2.03,4.37-3.9.7-1.75.65-3.7.28-5.51ZM18.88,14.72c.44.05.96-.04,1.42,0l-1.18-.6c-1.42-.88-2.76-2-3.4-3.59-.14-.09-1.66.21-1.92.29-.1.03-.33.03-.26.2,1.27,1.52,3.29,3.46,5.35,3.7ZM32.45,10.88l-1.64-.37c-.81,1.94-2.53,3.19-4.37,4.09-.12.06-.25-.06-.2.21,2.75.18,5.08-1.53,6.22-3.93Z"/>
      <path class="cls-1" d="M42.6,46.71h-1.37c.03-3.1-1.84-5.49-4.19-7.27l.77-1.05c2.79,1.84,4.83,4.87,4.79,8.32Z"/>
      <rect class="cls-1" y="10.33" width="8.68" height="1.37"/>
      <rect class="cls-1" x="2.93" y="7.5" width="4.84" height="1.37"/>
      <rect class="cls-1" x="39.03" y="7.5" width="4.84" height="1.37"/>
      <rect class="cls-1" x="5.03" y="13.07" width="4.84" height="1.37"/>
      <rect class="cls-1" x="36.93" y="13.07" width="4.84" height="1.37"/>
      <rect class="cls-1" x="22.58" y="41.14" width="1.37" height="1.28"/>
      <path class="cls-1" d="M23.95,44.98h-1.37v-1.28l1.29.04c.18.13.04.98.09,1.24Z"/>
    </g>
  </g>
</svg>