<?xml version="1.0" encoding="UTF-8"?>
<svg id="Capa_2" data-name="Capa 2" xmlns="http://www.w3.org/2000/svg" viewBox="0 0 26.52 26.49">
  <defs>
    <style>
      .cls-1 {
        fill: #d5ad7f;
      }
    </style>
  </defs>
  <g id="Capa_1-2" data-name="Capa 1">
    <g>
      <path class="cls-1" d="M9.28.05c1.25,0,2.5.04,3.75.04,2.03,0,4.1-.16,6.13-.06,4.29.22,7.25,3.31,7.29,7.61-.14,3.76.18,7.65,0,11.39-.21,4.4-3,7.17-7.4,7.39-3.84.2-7.84-.15-11.7,0-4.18-.21-7.07-3.12-7.29-7.29-.2-3.82.16-7.82,0-11.65C.09,4.75,1.42,2.26,3.83.94,5.52.01,7.4.06,9.28.05ZM7.12,2.53c-2.99.25-4.61,2.4-4.63,5.32.11,3.52-.14,7.12,0,10.62.16,3.97,1.88,5.32,5.7,5.49,3.27.14,6.99.18,10.26.06,1.98-.08,3.81-.55,4.86-2.36.93-1.6.74-3.17.78-4.94.06-2.95.16-5.97,0-8.91-.17-3-1.49-4.91-4.61-5.28H7.12Z"/>
      <path class="cls-1" d="M12.84,6.39c5.27-.34,8.93,5.35,6.41,10.02-2.42,4.48-8.79,4.82-11.64.59-2.95-4.37,0-10.27,5.23-10.61ZM13.2,8.81c-3.42.05-5.46,3.92-3.57,6.79,1.71,2.59,5.58,2.57,7.28-.03,1.9-2.9-.26-6.81-3.71-6.76Z"/>
      <path class="cls-1" d="M20.1,4.69c1.86-.24,2.47,2.38.75,2.96-2.19.75-2.86-2.69-.75-2.96Z"/>
    </g>
  </g>
</svg>