<?xml version="1.0" encoding="UTF-8"?>
<svg id="Capa_2" data-name="Capa 2" xmlns="http://www.w3.org/2000/svg" viewBox="0 0 37.5 37.5">
  <defs>
    <style>
      .cls-1 {
        fill: #d5ad7f;
      }
    </style>
  </defs>
  <g id="Capa_1-2" data-name="Capa 1">
    <g>
      <path class="cls-1" d="M14.22,0l1.85.24c8.05,1.63,12.86,9.92,10.11,17.76-.4,1.14-.99,2.17-1.62,3.19l2.02,2.02c.23.04.46-.93,1.2-.4l8.93,8.94c2.64,3.53-1.81,7.65-5.15,4.78l-8.72-8.71c-.47-.61.08-.84.39-1.27l-2.02-2.02C13.27,30.1,2.05,25.52.25,16.06L0,14.21c.02-.48-.03-.98,0-1.46C.43,5.93,5.85.44,12.68,0h1.54ZM12.81,1.19C2.8,1.76-2.4,13.48,3.97,21.28c5.21,6.38,15.19,5.87,19.75-.96C29.34,11.91,22.86.62,12.81,1.19ZM23.78,22.2c-.18.23-1.6,1.52-1.58,1.63l1.93,1.87,1.58-1.63-1.93-1.87ZM27.37,24.1l-3.2,3.18-.04.18,8.21,8.2c2.12,1.86,5.06-.59,3.58-3l-8.55-8.57Z"/>
      <path class="cls-1" d="M5.6,21.36C-.3,15.4,2.26,5.13,10.32,2.8c8.76-2.53,16.69,5.84,13.64,14.45-2.69,7.61-12.66,9.87-18.36,4.11ZM12.81,3.54c-7.47.5-11.73,8.81-7.78,15.21,3.86,6.25,13.01,6.22,16.9,0,4.3-6.88-1.08-15.75-9.13-15.21Z"/>
      <path class="cls-1" d="M18.76,13.84v5.09c0,.24-.41.39-.62.41-2.98.27-6.36-.21-9.38,0-.18.04-.55-.27-.55-.4v-5.09c-.18,0-.25.17-.42.21-.28.06-.63-.05-.72-.35-.09-.28-.08-2.24-.03-2.61.01-.12.03-.23.11-.33l5.84-4.12c.24-.2.53-.29.81-.12l6.01,4.24c.08.1.1.2.11.33.04.37.05,2.33-.03,2.61-.09.3-.44.41-.72.35-.17-.04-.24-.21-.42-.21ZM18.75,12.3c-.04-.3.1-.72-.11-.95l-5.14-3.57-5.19,3.57c-.16.17-.12.54-.11.77,0,.11-.06.21.11.18l4.8-3.4.4-.12,5.24,3.52ZM17.58,18.16v-5.16l-4.13-2.88-4.08,2.88v5.16h2.34v-4.28c0-.11.34-.38.48-.4.45-.08,1.85-.05,2.34,0,.26.02.69.18.69.48v4.21h2.34ZM14.07,14.65h-1.17v3.52h1.17v-3.52Z"/>
    </g>
  </g>
</svg>