<?xml version="1.0" encoding="UTF-8"?>
<svg id="Capa_2" data-name="Capa 2" xmlns="http://www.w3.org/2000/svg" viewBox="0 0 27.13 29.68">
  <defs>
    <style>
      .cls-1 {
        fill: #d5ad7f;
      }
    </style>
  </defs>
  <g id="Capa_1-2" data-name="Capa 1">
    <g>
      <path class="cls-1" d="M13.86,0l.67.35,6.06,5.27v-3.13c-.36,0-.8-.23-.87-.61-.04-.22-.03-1.1.01-1.32.06-.3.31-.45.57-.56h4.41c.2.11.47.3.54.53.07.22.07,1.11.03,1.34-.07.36-.49.64-.85.62-.08.08.12,1.58-.12,1.94-.27.41-.81.1-.81-.29v-1.65h-2.03v3.91l2.03,1.77v-1.94c0-.1.16-.37.29-.41.42-.14.6.15.64.52.05.42-.08,2.53.01,2.68l2.39,2.1c1.15,1.74-1.05,3.25-2.41,1.74v15.94h.9s.22.15.25.21c.19.33-.06.68-.43.66H1.94c-.67-.08-.42-.87-.11-.87h.9v-15.94c-1.34,1.49-3.52.04-2.43-1.71C4.3,7.74,8.13,4.1,12.17.72c.36-.3.65-.58,1.1-.72h.58ZM13.43.88c-.1.02-.22.1-.3.16L.92,11.78c-.21.52.27,1.04.78.78L12.87,2.81c.65-.5.74-.5,1.39,0l11.17,9.75c.53.27,1.02-.31.76-.82L14,1.04c-.18-.13-.33-.21-.57-.16ZM24.4.87h-3.83v.75h3.83v-.75ZM23.48,28.81V12.03L13.77,3.54l-.22-.1L3.65,12.03v16.78h19.82Z"/>
      <path class="cls-1" d="M8.87,11.8c.1-.6.89-.96,1.45-.84.06-.64.47-.88,1.07-.93,1.17-.09,3.25-.1,4.41,0,.57.05.97.34,1.01.93.42-.03.85.01,1.16.34.07.08.29.42.29.51v2h2.17s.32.12.37.15c.41.23.54.65.58,1.1-.17,2.96.22,6.17,0,9.1-.05.72-.36,1.24-1.13,1.3-1.81.16-3.85-.13-5.68,0-.54-.03-.59-.78-.05-.87l5.82-.03s.12-.11.12-.12v-3.68h-1.25l-.09.09v.87c0,.14-.37.51-.52.58-.29.13-1.06.12-1.38.05-.26-.06-.71-.4-.71-.68v-.9h-5.91v.9c0,.09-.23.42-.32.49-.35.29-1.38.32-1.77.14-.15-.07-.52-.44-.52-.58v-.87l-.09-.09h-1.25v3.68s.09.1.12.12l5.82.03c.53.08.49.83-.05.87-1.83-.13-3.88.16-5.68,0-.77-.07-1.08-.58-1.13-1.3-.22-2.93.17-6.14,0-9.1.04-.44.17-.87.58-1.1.05-.03.35-.15.37-.15h2.17c.07-.6-.1-1.42,0-2ZM15.94,11.82v-.84l-.2-.09c-1.37.13-3.01-.16-4.35,0-.08,0-.15,0-.2.09v.84h4.75ZM9.74,11.97v1.83h7.65v-1.83c0-.15-.45-.18-.57-.14-.09.54-.42.82-.96.87-1.52.12-3.21-.09-4.75,0-.43-.09-.76-.41-.79-.86-.15-.02-.52-.04-.57.14ZM6.67,14.81v4.98l.09.09h1.25v-.96c0-.17.46-.54.64-.58.22-.06.96-.06,1.19-.03.3.04.78.44.78.73v.84h5.91v-.84c0-.22.42-.64.64-.7.24-.06,1.14-.06,1.38.01.21.06.59.42.59.63v.9h1.19s.09-.08.14-.06v-5.01s-.09-.1-.12-.12c-.09-.04-1.99-.08-2.08-.02-.23,1.01-.91,1.6-1.95,1.68-1.84.13-3.82-.1-5.68,0-.93-.1-1.59-.76-1.78-1.67-.09-.06-1.98-.02-2.08.02-.03.01-.11.1-.12.12ZM17.33,14.66h-7.53c.08.54.56.77,1.07.81,1.79.14,3.76-.1,5.56,0,.39-.05.87-.4.9-.81ZM9.74,19.19h-.87v2.32h.87v-2.32ZM18.26,19.19h-.87v2.32h.87v-2.32Z"/>
    </g>
  </g>
</svg>