<?xml version="1.0" encoding="UTF-8"?>
<svg id="Capa_2" data-name="Capa 2" xmlns="http://www.w3.org/2000/svg" viewBox="0 0 40.5 40.36">
  <defs>
    <style>
      .cls-1 {
        fill: #d5ad7f;
      }
    </style>
  </defs>
  <g id="Capa_1-2" data-name="Capa 1">
    <g>
      <path class="cls-1" d="M40.49,29.38c-.09.66-.68,1.46-1.25,1.79-4.73,2.69-9.19,5.93-14.08,8.3-6.07.29-12.2-.01-18.27.16-.31.36-.76.61-1.24.66-.82.1-3.12.1-3.92-.01-.9-.13-1.63-.95-1.72-1.84v-14.48c.04-.83.73-1.7,1.56-1.84s3.24-.1,4.1-.02c.75.07,1.41.62,1.63,1.34h.78s0-9.48,0-9.48h-1.23s-.56-.33-.62-.4c-.43-.45-.51-1.25-.09-1.73,4.29-3.59,8.35-7.51,12.69-11.03.71-.57,1.3-1.13,2.24-.5,1.67,1.12,3.36,3.07,5,4.34.08.06.18.12.28.16v-2.65s.33-.56.4-.63c.2-.19.55-.33.82-.36.77-.08,2.88-.09,3.63,0s1.21.71,1.24,1.45v7.5c.82.86,2.86,1.76,2.01,3.21-.11.18-.61.64-.79.64h-1.23v14.16c1.59-.35,3.18-1.17,4.75-1.54,1.64-.39,2.83.36,3.32,1.94-.03.28.04.6,0,.87ZM33.22,12.61L20.28,1.38,7.28,12.61h3.68c.2,0,.51.45.52.67s-.21.67-.44.67h-1.5l-.11,9.44c.05.16.74.19.94.25,1.53.42,2.44,1.3,3.8,2.02v-1.38c0-2.78,2.89-5.38,5.58-5.58,3.1-.22,6.6,2.32,6.6,5.58v5.89l4.74-1.62v-14.48l-.12-.12h-6.88c-.36,0-.59-.78-.31-1.1.04-.04.37-.24.39-.24h9.05ZM31.08,8.81V2.6l-.12-.12h-3.28v3.52c1.03.78,1.96,1.79,2.97,2.57.07.05.38.3.43.24ZM15.5,24.43c-.05.52.03,1.1,0,1.62,2.51.4,5.55-.74,7.43,1.47.84.99,1.02,2.09.79,3.36l1.25-.25c-.08-1.94.15-4.04.01-5.96-.42-6.12-8.96-6.04-9.49-.23ZM5.91,23.63c-.09-.1-.27-.17-.41-.19-.73-.09-2.83-.08-3.56,0-.37.04-.46.2-.57.53l-.02,14.3c0,.28.27.59.53.65.41.09,3.16.08,3.62.01.28-.04.5-.27.56-.54l.04-14.21c0-.17-.07-.44-.19-.56ZM7.44,38.24h17.12c.24,0,1.1-.41,1.36-.54,4.26-2.23,8.37-5.39,12.63-7.7,1.17-.76.47-2.47-.9-2.17-4.58,1.43-9.06,3.25-13.71,4.4-2.33.16-6.14-.47-8.16.46-.39.18-1.3.9-1.63.87-.53-.05-.79-.63-.49-1.09.25-.38,1.74-1.12,2.21-1.27,1.97-.65,4.24-.13,6.29-.35,1.01-1.58-.46-3.23-2.09-3.37-2.15-.18-4.04.34-6.17-.47-1.4-.53-3.03-2.22-4.51-2.22h-1.94v13.45Z"/>
      <path class="cls-1" d="M38.26,17.37c.54-.12,1.06.38.83.91-.05.12-1.16,1.24-1.29,1.32-.61.35-1.25-.27-.92-.92.1-.2,1.19-1.27,1.38-1.31Z"/>
      <path class="cls-1" d="M37.39,20.37c.16-.02.33.06.46.14s1.16,1.12,1.21,1.24c.32.61-.37,1.2-.97.89-.14-.07-1.04-.99-1.14-1.15-.29-.45-.14-1.04.44-1.12Z"/>
      <path class="cls-1" d="M35.4,20.38c.49-.03.81.55.62,1-.04.08-1.18,1.21-1.27,1.26-.64.33-1.2-.23-.92-.92.11-.28,1.25-1.32,1.57-1.34Z"/>
      <path class="cls-1" d="M34.22,17.37c.23-.05.38-.02.57.11.11.07,1.19,1.14,1.23,1.22.28.66-.37,1.24-1.01.86-.14-.08-1.08-1.02-1.15-1.14-.2-.38-.09-.94.36-1.04Z"/>
      <path class="cls-1" d="M7.89,4.55c.47-.1.81.1.89.58.04.28.05,1.3-.01,1.56-.16.72-1.21.64-1.33.01-.05-.24-.04-1.49.02-1.72.05-.2.23-.39.44-.44Z"/>
      <path class="cls-1" d="M5.2,3.21c.24-.05,1.63-.05,1.85.02.55.18.54,1.15-.22,1.29-.28.05-1.35.06-1.61-.02-.62-.19-.64-1.15-.02-1.29Z"/>
      <path class="cls-1" d="M9.23,3.21c.25-.06,1.61-.05,1.85.02.61.19.5,1.16-.22,1.29-.33.06-1.35.06-1.65-.05-.58-.23-.58-1.12.02-1.25Z"/>
      <path class="cls-1" d="M7.89.52c.27-.06.61-.02.77.23s.18,1.6.11,1.92c-.15.69-1.21.67-1.32-.07-.08-.5-.16-1.94.45-2.08Z"/>
      <path class="cls-1" d="M17.03,17.8c-.23-.27-.13-.73-.2-1.02-.38-1.68-1.33-2.45-2.97-2.81-.44-.1-1.05.05-1.05-.69s.79-.61,1.21-.69c1.42-.29,2.54-1.28,2.81-2.73.08-.41-.08-1.01.44-1.22,1.08-.44.95,1.05,1.13,1.68.36,1.22,1.44,1.99,2.64,2.26.42.1.87-.08,1.13.38.61,1.1-1.08,1-1.67,1.2-1.07.37-1.96,1.36-2.2,2.47-.1.46.06,1.3-.61,1.37-.2.02-.52-.03-.65-.19ZM17.64,11.74c-.12-.03-.13.02-.19.08-.28.28-.49.67-.83.98-.19.17-.44.3-.63.47.57.47,1.22.9,1.5,1.62.52-.58.97-1.21,1.66-1.62-.56-.4-1.22-.89-1.5-1.54Z"/>
    </g>
  </g>
</svg>