<?xml version="1.0" encoding="UTF-8"?>
<svg id="Capa_2" data-name="Capa 2" xmlns="http://www.w3.org/2000/svg" viewBox="0 0 38.75 36.78">
  <defs>
    <style>
      .cls-1 {
        fill: #d5ad7f;
      }
    </style>
  </defs>
  <g id="Capa_1-2" data-name="Capa 1">
    <g>
      <path class="cls-1" d="M19.17,3.2c1.31.07,1.29,2.3.65,3.05.14.39.54.52.88.69.79.39,1.64.64,2.43,1.05,1.65.87,3.1,2.13,4.23,3.6l.71-.95c.87-1.02,2.28-1.87,3.64-1.98s5.5-.15,6.63.18c.11.03.29.11.34.22.1.2.15,1.65-.2,1.78-.54.22-3.73.4-3.86.81,0,.82.26,1.61.67,2.32.2.35.8.98.87,1.27.13.56-.32.97-.87.87-.62-.12-2.17-2.17-2.34-2.85-.19-.02-.13,0-.17.11-.21.6-.14.93-.95,1.04l.16.98c.74-.08,1.22.39,1.09,1.13-.04.23-.22.43-.22.65,0,.43.58,1.02.63,1.6s-.36,1.41-.13,1.87c1.49,1.68,4.08,3.08,4.26,5.56.22,2.97-.17,6.19,0,9.19-.12.73-.54,1.24-1.3,1.31-3.25.29-6.92-.22-10.22,0-.72-.09-1-.91-1.11-.94l-12.74.07-1.13-.23c-.29.6-.92.97-1.57,1.08-2.25-.13-4.74.2-6.96.01C-.53,36.43,0,31.26.09,29.13c.11-2.83.34-5.21,1.07-7.95.32-1.21.99-2.57.83-3.84-.12-1.02-1.58-.97-1.34-2.45.07-.46.67-1.06,1.03-1.34s2.1-1.2,2.17-1.31c.1-.16,0-.82.16-1.19.12-.28.59-.57.6-.61.08-.35,0-.54.17-1,.62-1.65,2.05-1.51,2.56.11.22.69.02.6.47,1.27.32.47.17.87.22,1.41l.85.45.12-.04c1.16-2.17,3.29-3.65,3.76-6.21-.21-.12-.49-.42-.54-.66-.06-.27-.06-1.43-.01-1.72.12-.75.95-.79,1.01-.97.06-1.47-.4-2.89,1.55-3.04.69-.05,3.03-.08,3.58.14,1.16.48.74,2.04.82,3.02ZM18.22,3.13v-1.78c0-.26-.47-.34-.67-.36-.45-.04-2.83-.05-3.11.06-.06.02-.26.19-.26.22v1.86h4.04ZM13.15,5.58h5.98l.12-.12v-1.19c-.14-.17-.31-.18-.51-.2-1.32-.12-3.82-.1-5.15,0-.15.01-.29.05-.43.08v1.42ZM12.08,34.87h12.7c-.07-1.65-.11-3.3,0-4.95.13-2.04.46-4.08.8-6.09-.03-.17-.37-.32-.51-.52-.68-.92-.47-3.34-.8-4.59s-1.1-2.31-1.53-3.46c-.33-.9-.85-2.46.6-2.61,2-.21,3.35,3.03,3.82,4.57l.52-1.02.58-.66-1.14-2.66c-1.12-1.64-2.57-3.04-4.33-3.98-1.01-.53-2.86-1.03-3.58-1.81-.18-.19-.17-.5-.47-.48-1.51.15-3.37-.18-4.84,0-.09.01-.17,0-.24.08-.04.05-.3,1.03-.4,1.27-.74,1.82-1.81,2.63-2.84,4.13-.11.17-.57.86-.59,1-.04.29.39.41.58.58.68.6,1.27,1.37.69,2.27-.26.4-.89.67-1.05,1.08-.28.71.05,2.15.31,2.86.04.11-.03.13.17.11.72-3.48,3.99-8.33,8.1-6.16,4.77,2.52,5.65,12.56,3.84,17.02-.39.97-1.14,1.66-2.19,1.84-2.28-.08-4.84.23-7.09.04-.43-.04-.85-.19-1.22-.4l-.4,2.37c.18-.05.4.14.51.16ZM5.55,10.41c.47-.05,1.11.23.91-.48-.03-.1-.34-.7-.4-.71-.2-.05-.66.96-.51,1.19ZM36.5,9.62h-4.87c-1.03,0-2.61,1.22-3.16,2.07-.37.57-.73,1.54.25,1.72.49.09,2.32.09,2.84.02.39-.05.32-.48.47-.8.19-.4.76-1.37,1.26-.79l.52,1.11c-.03-.48-.33-1.67.02-2.04.33-.35,2.14-.67,2.67-.65v-.63ZM7.05,12.31v-.9c-.09-.23-.4-.05-.59-.05-.25,0-1.4-.08-1.47-.05-.23.11-.24.83-.04.99h2.1ZM1.86,14.63c-.79.86.45,1.1.83,1.84.81,1.58-.62,4.69-.99,6.43-.61,2.83-.92,6.83-.74,9.72.06.97.37,2.95,1.55,3.12l7.08-.03c.77-.28,1.1-1.18,1.24-1.93.31-1.59.2-3.73.11-5.36-.11-1.94-.32-3.93-.75-5.82-.36-1.6-1.74-4.64-.95-6.1.47-.86,1.78-.96.72-1.98-.31-.3-1.83-1.3-2.21-1.35s-.69.08-1.03.09c-.87.02-1.73-.04-2.6-.06-.32.07-2,1.17-2.25,1.43ZM25.81,22.6l.79-3.52c-.07-1.33-1.48-5.14-2.85-5.47-.17-.04-.47-.1-.48.16,0,.19.25.87.33,1.1.45,1.2,1.2,2.28,1.54,3.52s.24,2.34.43,3.53c.03.19.06.59.23.68ZM16.06,14.31c-2.55.35-4.25,4.12-4.76,6.33-.41,1.78.02,2.44.25,4.15.29,2.09.31,4.2.42,6.3.09.31.89.66,1.21.69,2.13-.22,4.9.3,6.95-.02.98-.15,1.37-.95,1.62-1.78,1.23-4.07.78-10.69-2.07-14.03-.96-1.13-2.07-1.85-3.62-1.64ZM31.04,15.4l-.19-.95c-.1-.14-.87-.08-1.08-.04l-.23.99h1.5ZM32.15,16.35h-3.29c-.22,0-.44.48-.53.66-1.47,3.11-2.4,9.51-2.6,12.99-.08,1.32-.19,4.06.12,5.27.05.2.24.5.47.48l10.14-.08.19-.44c-.16-2.9.2-6,0-8.87-.1-1.49-1.21-2.44-2.22-3.4-.72-.69-2.13-1.52-2.14-2.61,0-.43.28-1.08.24-1.5-.03-.28-.35-.64-.45-.9-.23-.58-.26-1.04.06-1.6Z"/>
      <path class="cls-1" d="M5.21,26.58c.19.18.11.95.22,1.33.36,1.28,1.3.98,2.17,1.55.72.47,1.03,1.28.96,2.13-.03.31-.31.91-.3,1.1.01.14.23.45.3.64.12.37.44,1.22-.14,1.38-.63.17-.65-.83-.81-1.22-.42-1.01-1.46-1.61-2.1-2.41-.44-.56-.38-1.15.42-.97l1.56,1.6c.11-.07.11-.15.12-.27.2-1.76-2.28-1.17-2.78-2.58-.12,0-.14.29-.15.37-.09.88,0,2.49.83,3.03.44.28,1.48.26,1.36.9-.13.73-1.54.14-1.91-.11-1.32-.88-1.39-3.1-1.12-4.5.08-.42.62-2.67,1.37-1.96Z"/>
      <path class="cls-1" d="M5.37,24.29c1.95-.24,3.8.87,4.26,2.82.1.44.32,1.48-.47,1.35-.48-.08-.37-1.02-.51-1.47-.88-2.68-4.91-2.4-5.43.36-.07.38.09,1.09-.47,1.12-1.07.06-.22-2.05.09-2.53.52-.81,1.59-1.53,2.55-1.65Z"/>
      <path class="cls-1" d="M19.8,26.32c-.38.15-.66.39-1.09.45-1.27.18-2.65-.62-3.03,1.29.15.12,2.06-.86,2.42-.88.7-.03.61.66-.02,1.01-1,.56-2.14.62-3.07,1.45-.38.34-.68,1.12-1.17,1.02-.8-.17-.07-1.09.22-1.41.13-.15.61-.49.63-.55.1-.2,0-.51.05-.74.14-.81.58-1.62,1.36-1.96,1.46-.63,2.62.64,3.66-1.17.19-.33.2-.81.64-.85.7-.06.54,1.36.5,1.84-.12,1.41-1.14,3.79-2.53,4.35-.49.2-2.32.46-2.5-.2-.23-.82,1.28-.5,1.74-.56,1.14-.15,2.07-2.04,2.18-3.08Z"/>
      <path class="cls-1" d="M16.69,17.31c.64-.06.96,1.51,1.19,2.02.5,1.12,1.33,1.9.89,3.24-.63,1.91-3.35,1.95-4.06.09-.52-1.37.39-2.25.9-3.4.16-.37.52-1.62.74-1.8.07-.06.25-.13.34-.14ZM16.71,19.04c-.2,1.01-1.42,2.11-1.15,3.17.39,1.49,2.93.97,2.27-.93l-1.12-2.24Z"/>
      <path class="cls-1" d="M28.8,25.08c.72-.1,3.16-.12,3.85-.02.42.06.63.49.36.83-.08.07-.18.1-.28.11-1.09.17-2.58-.12-3.72,0-.58.07-.74.38-.82.92-.29,1.97-.23,4.11-.56,6.1,0,.45.38.8.82.82l5.84-.02c.13-.04.19-.13.21-.26.1-.52-.33-2.77.58-2.64.63.1.5,1.89.45,2.4-.08.88-.48,1.39-1.38,1.47-1.44.12-4.36.14-5.78,0-.99-.1-1.64-.79-1.71-1.78l.66-6.71c.22-.67.76-1.13,1.46-1.23Z"/>
      <path class="cls-1" d="M34.28,27.19l-.87.68c-1.12.61-2.9.15-2.61,2.17l1.97-1.55c1.22-.01.6.75.04,1.23-.78.67-1.7,1.06-2.27,2-.26.43-.47,1.78-1.18,1.13-.36-.33.09-1.1.28-1.47.09-.18.32-.36.34-.53.03-.19-.13-.47-.14-.7-.07-1.02.13-2,1.1-2.54s2.03-.11,2.65-1.31c.22-.44.17-1.94.95-1.49.33.19.54,1.31.59,1.7.23,1.6-.13,4.39-1.79,5.15-.38.17-1.74.59-1.9.04-.23-.78.87-.68,1.38-.88,1.26-.49,1.42-2.48,1.45-3.65Z"/>
    </g>
  </g>
</svg>