<?xml version="1.0" encoding="UTF-8"?>
<svg id="Capa_2" data-name="Capa 2" xmlns="http://www.w3.org/2000/svg" viewBox="0 0 31.85 41.21">
  <defs>
    <style>
      .cls-1 {
        fill: #d5ad7f;
      }
    </style>
  </defs>
  <g id="Capa_1-2" data-name="Capa 1">
    <g>
      <path class="cls-1" d="M7.14,9.37h2.36c.45,0,.81,1.22-.16,1.33-.73.09-1.61-.07-2.36,0l-.17,1.33h18.24l-.17-1.33-13.12-.02c-.76-.17-.47-1.31-.02-1.31h12.97l-.5-5.76c-.08-1.13-.67-2.08-1.87-2.2-.56-.06-1.68.25-1.78-.55-.12-.98,1.2-.84,1.86-.78,1.48.14,2.68,1.2,2.99,2.65l1.7,17.53c.19.69.69,1.17.97,1.85.92,2.29.35,4.94-1.47,6.61.84.38,1.63.52,2.4,1.09,1.25.94,1.65,2.08,1.9,3.57.4,2.36.54,4.83.93,7.2-.02.35-.27.61-.63.63h-8.71c-.97-.11-.61-1.33-.16-1.33h2.2v-4.19c0-.58,1.33-.58,1.33,0v4.19h4.56l-.95-7.05c-.25-1.09-.98-1.94-2.01-2.38l-7.96-2.49-.56.32c-1.66,1.85-7.01,4.83-7.01,7.5v4.1h8.17c.45,0,.81,1.22-.16,1.33H.71c-.46.02-.76-.34-.7-.79.72-2.63.29-7.49,1.87-9.66.87-1.19,2.04-1.54,3.35-2.04-1.82-1.68-2.4-4.3-1.47-6.61.27-.68.76-1.18.97-1.85.67-5.55.85-11.2,1.58-16.74.24-1.82,1.12-3.26,3.11-3.44,2.92-.27,6.24.2,9.2,0,.83.08.84,1.24,0,1.33-2.92.19-6.16-.25-9.04,0-1.22.1-1.83.96-1.93,2.13l-.51,5.83ZM7.3,13.35h-.58s-.77,7.65-.77,7.65c-.29.56-.69.95-.93,1.56-.88,2.16-.15,4.51,1.83,5.72l5.1-1.63-.04-1.02c-2.22-1.22-3.87-3.3-4.4-5.8-.44-2.08-.1-4.35-.21-6.47ZM23.22,13.35h-14.59v5.35c0,1.05.83,2.84,1.46,3.68,2.87,3.86,8.8,3.87,11.68,0,.63-.85,1.46-2.63,1.46-3.68v-5.35ZM25.12,13.35h-.58c-.11,2.3.28,4.75-.34,6.99-.61,2.22-2.2,4.15-4.22,5.23l-.03,1.13,5.05,1.56c2.19-1.31,2.81-4.12,1.51-6.32-.2-.34-.51-.57-.63-.95l-.77-7.64ZM18.58,26.2c-1.74.55-3.56.55-5.3,0l.08.79,2.28,2.34,2.93-2.41.02-.73ZM10.62,39.88v-4.19c0-.33.32-1.27.46-1.61.73-1.78,2.17-2.62,3.51-3.87l-2.15-2.23-8.18,2.52c-.88.43-1.53,1.14-1.83,2.07l-1.02,7.31h4.56v-4.19c0-.58,1.33-.58,1.33,0v4.19h3.32Z"/>
      <path class="cls-1" d="M14.08,34.59c1.38-.23,1.58,1.85.3,1.97s-1.49-1.77-.3-1.97Z"/>
      <path class="cls-1" d="M14.08,37.24c1.38-.23,1.58,1.85.3,1.97-1.29.12-1.49-1.77-.3-1.97Z"/>
      <path class="cls-1" d="M13.75,21.32c.77-.17.73.49,1.1.86.64.64,1.73.6,2.28-.13.28-.38.28-.88.98-.72.81.18.4,1.07.06,1.52-1.2,1.54-3.51,1.5-4.58-.15-.28-.44-.58-1.21.16-1.37Z"/>
      <path class="cls-1" d="M11.59,14.7c.88-.14,1.77.31,2.15,1.12.24.51.38,1.48-.44,1.52-1.04.04-.37-1.3-1.33-1.34s-.51.96-1,1.24c-.38.21-.91.06-1.01-.38-.21-.92.72-2.02,1.62-2.16Z"/>
      <path class="cls-1" d="M19.55,14.7c.88-.14,1.77.31,2.15,1.12.24.51.38,1.48-.44,1.52-1.04.04-.37-1.3-1.33-1.34s-.51.96-1,1.24c-.38.21-.91.06-1.01-.38-.21-.92.72-2.02,1.62-2.16Z"/>
    </g>
  </g>
</svg>