<?xml version="1.0" encoding="UTF-8"?>
<svg id="Capa_2" data-name="Capa 2" xmlns="http://www.w3.org/2000/svg" viewBox="0 0 50.37 39.1">
  <defs>
    <style>
      .cls-1 {
        fill: #fff;
      }
    </style>
  </defs>
  <g id="Capa_1-2" data-name="Capa 1">
    <g>
      <path class="cls-1" d="M29.02,12.49h17.78c1.73,0,3.5,1.94,3.48,3.67-.22,3.98.28,8.25,0,12.2-.13,1.88-1.55,3.77-3.58,3.77h-2.77v6.3c0,.5-.85.87-1.26.56l-6.26-6.83-11.16-.02c-2.04-.03-3.87-1.7-3.87-3.78v-8.81h-7.4l-6.24,6.85c-.41.43-1.26-.07-1.26-.55v-6.3h-3.07c-1.5,0-3.28-1.97-3.27-3.48.27-4.05-.37-8.59,0-12.59C.29,1.66,1.56.26,3.38,0h22.56c1.68.3,3.08,1.97,3.08,3.68v8.81ZM8.07,23.67c.17-.09.33-.26.45-.4,1.36-1.51,2.72-3.19,4.13-4.64.48-.49.57-.64,1.31-.71,3.73-.32,7.91.24,11.69,0,.93-.19,1.71-1,1.76-1.96-.23-4,.3-8.33,0-12.3-.09-1.23-.75-1.96-1.97-2.16-7.44.09-14.92-.17-22.33.13-.69.22-1.25.92-1.39,1.63.28,4.13-.36,8.73,0,12.8.24,2.73,3.7,1.62,5.48,1.87.28.04.87.36.87.65v5.09ZM47,14.11h-17.98v1.66c0,1.29-.78,2.61-1.88,3.25-.25.15-1.15.52-1.39.52h-2.77v9.32c0,.59,1.12,1.65,1.77,1.65l12.23.05c1.92,1.75,3.51,3.85,5.33,5.7v-5.09c0-.3.47-.61.76-.65,1.93-.27,4.72.85,5.56-1.59v-13.16c-.08-.67-.98-1.56-1.64-1.67Z"/>
      <path class="cls-1" d="M25.77,25.51l19.82-.03c1.21-.02,1.35,1.47.1,1.62h-19.55c-1.1-.02-1.48-1.14-.38-1.59Z"/>
      <path class="cls-1" d="M25.67,21.58l20.23-.03c.83.11.93,1.4-.1,1.52h-19.95c-.87,0-.99-1.31-.18-1.49Z"/>
      <path class="cls-1" d="M31.11,17.55l14.59-.02c1.19.14,1.14,1.49,0,1.62h-14.41c-.98-.12-1.11-1.28-.18-1.59Z"/>
    </g>
  </g>
</svg>