<?xml version="1.0" encoding="UTF-8"?>
<svg id="Capa_2" data-name="Capa 2" xmlns="http://www.w3.org/2000/svg" viewBox="0 0 35.44 35.44">
  <defs>
    <style>
      .cls-1 {
        fill: #fff;
      }
    </style>
  </defs>
  <g id="Capa_1-2" data-name="Capa 1">
    <g>
      <path class="cls-1" d="M33.71,35.44H7.68c-.7-.41-.63-1.19.17-1.39h25.41c.29.06.79-.31.79-.59v-1.35h-6.26c-.26,0-.54-.46-.52-.73.01-.24.29-.66.52-.66h6.26V7.68h-4.53c-.69,0-1.77-1.07-1.77-1.77V1.38H7.79c-.25,0-.63.46-.59.73v6.3c-.25.82-1.21.78-1.39-.06.17-2.06-.23-4.48,0-6.5.11-.98.92-1.74,1.9-1.84h20.89c.19.09.35.22.5.34,2.11,1.75,4,4.26,6.08,6.1l.22.34.03,26.76c-.11.99-.79,1.66-1.73,1.9ZM33.02,6.3l-3.88-3.88v3.29c0,.18.4.59.59.59h3.29Z"/>
      <path class="cls-1" d="M0,12.11l2.17-4.58c.24-.69-.38-2.76.64-2.89.34-.04.73.25.79.59.11.69-.12,1.6.05,2.3.7,1.59,1.6,3.11,2.17,4.75l-.03,4.4c-.22.39-.58.64-1,.37-.08-.05-.35-.35-.35-.41v-3.7H1.38v17.38h3.05v-8.06c0-.2.48-.53.73-.52.21,0,.66.35.66.52v9.59h1.07s.37-.34.32-.45c.12-1.87-.18-3.98,0-5.82.08-.85,1.06-1,1.37-.19-.08,1.95.16,4.08.02,6.01-.12,1.56-1.38,1.98-2.77,1.83.09,1-.04,1.89-1.11,2.22H1.11c-.56-.18-.93-.55-1.11-1.11V12.11ZM1.8,11.56h2.22l-1.14-2.28-1.07,2.28ZM4.43,31.7H1.38v2.35h3.05v-2.35Z"/>
      <path class="cls-1" d="M21.32,13.5v1.66h7.58c.27,0,.55.41.58.66.07.51-.08,3.19.02,3.34,2.08.54,2.93,3.06,1.48,4.72-1.2,1.37-3.39,1.31-4.49-.15-1.27-1.68-.39-4.08,1.62-4.56v-2.63h-6.78v2.63c2.07.49,2.92,3.02,1.52,4.67-1.29,1.52-3.79,1.31-4.74-.45s-.03-3.76,1.84-4.22v-2.63h-6.78v2.63c2.01.49,2.89,2.88,1.62,4.56-1.1,1.45-3.3,1.52-4.49.15-1.44-1.65-.6-4.18,1.48-4.72.1-.15-.06-2.84.02-3.34.04-.26.31-.66.58-.66h7.58v-1.66h-2.11c-.27,0-.67-.37-.66-.66.13-1.81-.17-3.83,0-5.61.03-.37.21-.61.59-.66,1.81.15,3.91-.19,5.68,0,.42.04.58.27.65.67-.11,1.74.16,3.68,0,5.4-.02.2-.07.47-.21.62-.08.08-.43.24-.52.24h-2.04ZM22.71,7.96h-4.15v4.15h4.05l.1-.1v-4.05ZM12.1,20.51c-1.53.26-1.51,2.74.06,2.95,2.46.34,2.41-3.37-.06-2.95ZM20.27,20.51c-1.53.26-1.51,2.74.06,2.95,2.44.34,2.4-3.37-.06-2.95ZM28.43,20.51c-1.55.26-1.52,2.74.06,2.95,2.44.34,2.4-3.37-.06-2.95Z"/>
      <path class="cls-1" d="M5.04,18.84c.72-.09,1.09.94.38,1.29-.95.46-1.4-1.16-.38-1.29Z"/>
      <path class="cls-1" d="M25.53,30.75c.72-.09,1.09.94.38,1.29-.95.46-1.4-1.16-.38-1.29Z"/>
    </g>
  </g>
</svg>