<?xml version="1.0" encoding="UTF-8"?>
<svg id="Capa_2" data-name="Capa 2" xmlns="http://www.w3.org/2000/svg" viewBox="0 0 32.2 32.2">
  <defs>
    <style>
      .cls-1 {
        fill: #fff;
      }
    </style>
  </defs>
  <g id="Capa_1-2" data-name="Capa 1">
    <g>
      <path class="cls-1" d="M26.48,0v17.44c.66.4,1.26.95,2,1.22h3.73v1.08c-1.12-.06-2.32.09-3.43,0-1.63-.12-3.6-2.14-5.08-2.91-.22-.12-1.01-.42-1.16-.13-.17.33-.19,1.06-.39,1.43.49.22.98.38,1.22.92.56,1.22-.37,2.18-1.57,2.27-1.91.14-3.98-.12-5.9.01-.69.17-1.21.77-1.18,1.49,1.48.05,3.02-.07,4.5,0,2.05.1,3.82,1.16,5.78,1.07,1.2-.06,2.44-.55,3.62-.79s2.36-.32,3.59-.28v1.07c-2.01-.19-3.81.35-5.72.82v4.34h-6.73v3.14H0V3.14h6.73V0h19.75ZM25.47,1.07H7.8v3.08H1.07v26.98h17.61v-4.15c-.58-.11-.54.24-.63.69l-1.01-.25.12-.65c-1.03-.78-1.06-1.71-.68-2.88h-1.98c-.4,0-.95-.72-.85-1.13-1.14.37-2.23-.62-2.07-1.79.1-.71.84-1.22,1.25-1.73h-1.86l-.09-.09v-.97h3.05l.97-1.01h-3.93l-.09-.09v-.97h5.19c.06,0,.83-.5,1.13-.5h1.48V4.15h-9.87v-1.01h10.94v8.62l1.54-5.47c.97-1.84,3.8-1.25,3.79.89l-2.19,8.42c.39-.02.76.08,1.11.24.52.23.94.66,1.47.89V1.07ZM23.39,9.62c.06-.74.71-1.97.63-2.66-.1-.82-1.38-1.01-1.77-.27-.32.62-.36,1.68-.67,2.34l1.81.59ZM23.08,10.63l-1.76-.57-.25,1.03c.04.12,1.51.55,1.76.61l.25-1.07ZM18.55,20.25h1.95c.67-2.51,1.4-5.02,2.01-7.54l-1.76-.57-2.2,8.11ZM18.43,16.6h-.91c-.17,0-.66.2-.82.31l-3.93,3.93c-.43.62.2,1.25.85.79,1.24-.87,2.3-2.88,3.82-3.35.2-.06.41-.04.6-.12l.39-1.56ZM21.57,20.25c.99.25,1.29-1.03.25-1l-.25,1ZM16.48,20.25h1.01l.22-.94c-.52.13-.89.55-1.23.94ZM19.5,23.9h-1.95c-.2.72-.58,2.05.6,2.08s1.09-1.25,1.35-2.08ZM25.47,24.91c-1.75.18-3.28-.39-4.9-.88-.21.67-.33,1.36-.61,2.01-.04.09-.21.27-.21.29v1.73h5.72v-3.14Z"/>
      <path class="cls-1" d="M15.6,5.22v5.16H2.08v-5.16h13.52ZM14.53,6.23H3.14v3.14h11.38v-3.14Z"/>
      <polygon class="cls-1" points="6.23 13.52 6.23 14.53 3.14 14.53 3.14 18.68 7.3 18.68 7.3 16.6 8.3 16.6 8.3 19.75 2.08 19.75 2.08 13.52 6.23 13.52"/>
      <polygon class="cls-1" points="6.23 22.33 6.23 23.4 3.14 23.4 3.14 27.55 7.2 27.55 7.3 27.45 7.3 25.47 8.3 25.47 8.3 28.55 2.08 28.55 2.08 22.33 6.23 22.33"/>
      <polygon class="cls-1" points="9.98 20.45 10.75 21.16 5.19 26.67 3.83 25.31 4.51 24.6 5.19 25.22 9.98 20.45"/>
      <path class="cls-1" d="M10.38,11.92l.03.03c.19.19.19.5,0,.7l-4.86,4.86c-.19.19-.49.19-.69.01-.37-.34-.87-.73-1-.97-.05-.09.13-.27.31-.44s.48-.18.67,0h0c.19.18.49.17.68-.02l4.16-4.16c.19-.19.5-.19.7,0Z"/>
      <rect class="cls-1" x="10.88" y="14.03" width="6.79" height="1.01"/>
      <rect class="cls-1" x="9.87" y="28.55" width="5.72" height="1.07"/>
      <rect class="cls-1" x="16.6" y="28.55" width="1.07" height="1.07"/>
      <rect class="cls-1" x="4.15" y="7.3" width="1.07" height="1.01"/>
      <rect class="cls-1" x="6.23" y="7.3" width="1.07" height="1.01"/>
      <rect class="cls-1" x="8.3" y="7.3" width="1.07" height="1.01"/>
      <rect class="cls-1" x="10.38" y="7.3" width="1.07" height="1.01"/>
      <rect class="cls-1" x="12.45" y="7.3" width="1.07" height="1.01"/>
    </g>
  </g>
</svg>