<?xml version="1.0" encoding="UTF-8"?>
<svg id="Capa_2" data-name="Capa 2" xmlns="http://www.w3.org/2000/svg" viewBox="0 0 39.82 43.17">
  <defs>
    <style>
      .cls-1 {
        fill: #fff;
      }
    </style>
  </defs>
  <g id="Capa_1-2" data-name="Capa 1">
    <g>
      <path class="cls-1" d="M21.94,43.17c-.91-.27-1.69-.99-1.77-1.98-.06-.81.39-1.53.5-2.32H5.79c-.09,0-.3-.22-.34-.33-.2-.61.23-.87.76-.93h14.91c.27-.31.46-.67.73-.97,2.34-2.65,5.28-5.04,7.68-7.66l.08-.34V6.2c.11-.98,1.26-.58,1.26-.17v21.54c1.9-1.43,4.1-5.61,6.91-3.49,1.36,1.03,2.66,2.65,1.73,4.41-4.33,4.65-8.89,9.19-13.53,13.53-.98.6-2.15.71-3.2,1.14h-.84ZM35.82,24.81c-.84.14-1.69,1.44-2.34,1.96l3.08,3.08c.85-1,2.73-2,1.68-3.53-.14-.21-.97-1.03-1.18-1.19-.37-.27-.79-.39-1.24-.32ZM32.53,27.75c-.1.03-1.42,1.35-1.4,1.45l3.06,3c.09-.02,1.24-1.18,1.32-1.3.06-.09.1-.12.07-.24-.1-.37-2.48-2.32-2.81-2.85-.07-.07-.14-.1-.24-.07ZM30.16,30.1l-7.61,7.71,2.98,2.98,7.71-7.61-3.08-3.08ZM24.3,41.39l-2.36-2.36c-.05.78-.9,1.97-.21,2.62s1.8-.2,2.57-.26Z"/>
      <path class="cls-1" d="M1.23,37.74c-.48-.47-.95-1.32-1.1-1.98C-.13,25.14.09,14.48.01,3.84.19,1.77,1.78.16,3.85,0h23.19c1.27.12,2.44.76,3.14,1.83.3.47.9,1.6.22,1.95-.79.41-.92-.67-1.19-1.14-.45-.78-1.29-1.25-2.17-1.37H3.93c-1.46.12-2.51,1.21-2.66,2.65v31.03c.07.88.44,1.61,1.16,2.13.44.32,1.93.74,1.04,1.49-.56.48-1.82-.4-2.25-.84Z"/>
      <path class="cls-1" d="M8.6,2.98c4.35.2,9.08-.35,13.39-.03,3.07.23,3.06,5.77.08,6.07-4.25-.24-8.86.32-13.07,0-2.08-.16-2.45-1.89-2.32-3.67.09-1.18.71-2.14,1.92-2.38ZM8.76,4.24c-.94.19-.89,1.55-.82,2.3.05.64.29,1.12.98,1.21h12.98c1.14-.08,1.13-1.42,1.05-2.31-.06-.63-.22-1.06-.89-1.22h-13.3Z"/>
      <path class="cls-1" d="M7.16,19.41c3.69-.58,4.53,4.74,1.14,5.44-3.82.78-4.59-4.9-1.14-5.44ZM7.33,20.68c-1.96.41-1.15,3.6.87,2.89,1.75-.61,1.02-3.28-.87-2.89Z"/>
      <path class="cls-1" d="M7.16,27.42c2.49-.36,4.28,2.31,2.75,4.35-1.85,2.46-5.73.55-4.88-2.44.25-.89,1.2-1.78,2.13-1.92ZM7.33,28.69c-1.52.26-1.5,2.72.07,2.92,2.41.32,2.35-3.34-.07-2.92Z"/>
      <path class="cls-1" d="M25.2,21.69c.39.39.13,1.06-.44,1.07h-10.38c-.78-.1-.71-1.22.09-1.27,3.26.23,6.91-.29,10.12,0,.18.02.48.07.6.2Z"/>
      <path class="cls-1" d="M14.33,29.53l10.44-.02c.82.07.82,1.2,0,1.27h-10.29c-.75-.07-.87-1-.15-1.25Z"/>
      <path class="cls-1" d="M14.41,13.51l10.18-.02c.84.04,1.14,1.02.26,1.27h-10.46c-.79-.08-.72-1.1.02-1.25Z"/>
      <path class="cls-1" d="M10.11,11.15c.63-.14.92.34.74.91l-4.02,3.98c-.26.11-.42.08-.65-.07-.16-.1-1.58-1.54-1.63-1.66-.19-.45.01-.99.56-.97.44.02,1.07.96,1.45,1.24.25,0,2.99-3.31,3.56-3.44Z"/>
      <path class="cls-1" d="M29.33,33.24c.59-.13.96.41.69.94-.32.61-1.7,1.52-2.13,2.16-.65.3-1.16-.16-.93-.85.51-.36,1.89-2.15,2.38-2.26Z"/>
    </g>
  </g>
</svg>