<?xml version="1.0" encoding="UTF-8"?>
<svg id="Capa_2" data-name="Capa 2" xmlns="http://www.w3.org/2000/svg" viewBox="0 0 38.63 38.61">
  <defs>
    <style>
      .cls-1 {
        fill: #fff;
      }
    </style>
  </defs>
  <g id="Capa_1-2" data-name="Capa 1">
    <path class="cls-1" d="M33.87,6.59C22.52-6.37,1.01,1.02.01,18.09c-.05.8.03,1.62,0,2.41l.25,1.98c1.36,8.28,8.14,14.86,16.47,15.97.45.06.95.05,1.38.16h2.41c15.84-.93,23.88-19.99,13.35-32.02ZM28.51,33.66c-6.1,3.87-13.96,3.54-19.67-.91C1.9,27.35.22,17.49,4.99,10.06c.18-.28,1.33-1.95,1.54-1.92l8.03,8.04c-1.18,1.98-1.18,4.26,0,6.24l-1.83,1.78c-.51-.22-1.06-.32-1.61-.31l-.98-2.38c.25-.37.58-.67.78-1.08,1.4-2.92-1.66-5.98-4.59-4.51-2.89,1.45-2.25,5.77.93,6.37.25.05.65-.02.8.11l.99,2.33c-.55.66-1.02,1.35-1.1,2.23-.41,4.86,7.04,4.91,6.79.15-.02-.43-.26-.83-.29-1.15,0-.09,0-.15.06-.21l1.71-1.68c.65.28,1.26.71,1.99.74v7.02h2.26v-7.02c.75,0,1.37-.54,2.03-.72l7.99,8.01c.04.21-1.68,1.39-1.96,1.57ZM12.73,27.62c-.15.53-.6.97-1.12,1.1-.11.03-.22.04-.32.04-.37,0-.73-.16-1.02-.46-.64-.67-.46-1.53.06-2.03.51-.5,1.38-.67,2.03-.01h0c.37.38.51.87.38,1.36ZM9.17,19.57c-.19.45-.59.73-1.1.8-.08,0-.16.01-.23.01-.85,0-1.32-.61-1.41-1.22-.09-.71.3-1.53,1.2-1.67h0c.52-.08,1,.11,1.31.51.34.44.42,1.06.22,1.56ZM19.58,22.69c-4.39.33-4.98-6.29-.66-6.77,4.58-.5,5.13,6.43.66,6.77ZM17.92,8.27c-.15-.71.18-1.52,1.09-1.71.54-.11,1.02.03,1.36.41.36.41.48,1.01.31,1.53-.16.47-.54.81-1.04.91-.12.02-.23.03-.33.03-.75,0-1.25-.55-1.38-1.17ZM33.24,29.69c-.65.88-.88,1.09-1.11,1.09-.02,0-.05,0-.07,0l-.1-.02-8.14-8.15c-.14-.29.06-.57.19-.76.03-.05.07-.09.08-.13.52-1.2.67-2.25.5-3.49l-.03-.25,2.68-1.07.14.1c.13.09.25.18.36.27.28.22.55.43.88.55,1.7.64,3.04-.22,3.67-1.15.63-.92.94-2.46-.25-3.78-1.07-1.19-2.49-1.18-3.47-.77-.97.41-1.97,1.4-1.87,2.98v.23s-2.83,1.13-2.83,1.13l-.15-.19c-.64-.85-1.73-1.92-3.35-2.23l-.26-.05v-3.03s.21-.08.21-.08c1.7-.62,2.15-2.17,2.01-3.31-.13-1.11-.91-2.48-2.67-2.67-1.88-.2-3.03,1.04-3.33,2.36-.31,1.32.18,2.94,1.94,3.58l.21.08v3.15s-.29.02-.29.02c-.47.03-.9.24-1.36.47-.17.09-.34.17-.52.25l-.2.09L7.73,6.38l.25-.22c2.44-2.14,5.67-3.62,8.85-4.06,7.11-.99,13.8,2.27,17.46,8.48,3.6,6.11,3.21,13.41-1.01,19.05l-.05.06ZM28.36,15.15c-.08-.67.26-1.43,1.06-1.57.84-.16,1.29.23,1.48.48.33.42.4,1.05.17,1.55-.22.49-.67.79-1.23.82-.03,0-.06,0-.09,0-.84,0-1.31-.65-1.38-1.28Z"/>
  </g>
</svg>