<?xml version="1.0" encoding="UTF-8"?>
<svg id="Capa_2" data-name="Capa 2" xmlns="http://www.w3.org/2000/svg" viewBox="0 0 29.16 41.65">
  <defs>
    <style>
      .cls-1 {
        fill: #d5ad7f;
      }
    </style>
  </defs>
  <g id="Capa_1-2" data-name="Capa 1">
    <g>
      <path class="cls-1" d="M22.8,41.65h-4.31c-.71-.22-1.16-.6-1.42-1.3l-2.44-11.22c-.18-.04-.12.14-.14.26-.88,3.63-1.52,7.33-2.38,10.96-.26.71-.71,1.08-1.42,1.3h-4.31c-2.59-.95-.6-3.27-.04-4.88.07-.19.12-.37.17-.57.75-3,.94-6.39,1.62-9.44.26-.85,1.43-.55,1.19.37l-1.55,8.9h4.07l2.03-9.43c-5.34-.57-8.41-6.42-5.65-11.14.13-.22.72-.94.75-1.04.12-.4.08-1.73-.27-2.06L.68,4.36C-1.41,1.79,1.76-1.47,4.38.74c2.49,2.09,4.74,5.23,7.24,7.24,4.35,3.49,7.66-2.03,10.49-4.55.53-.46,1.25.1.97.73l-2.96,2.98,1.89,1.89,5.62-5.6c.98-1.27-.52-2.96-2.03-1.79-.4.31-.72,1.02-1.29.72-.87-.46.21-1.43.65-1.76,2.52-1.92,5.65,1.23,3.44,3.85-2.31,2.75-5.54,5.2-7.93,7.93-.34.36-.39,1.65-.27,2.06.03.1.65.86.78,1.09,1.2,2.06,1.32,4.57.36,6.75-.18.4-.83,1.29-.82,1.6l2.15,12.34c.39,1.78,2.91,4.42.12,5.45ZM2.28,1.25c-.9.15-1.34,1.29-.86,2.04l5.64,5.67c.07.08.11.09.21.04.11-.06,1.7-1.64,1.75-1.75.03-.06.05-.1,0-.16L3.61,1.68c-.42-.33-.77-.52-1.32-.43ZM18.97,13.27c-.09-1.49,1.24-2.32,2.11-3.3l-1.84-1.89c-.13-.02-.81.75-.97.89-2.53,2.08-6.25,1.59-8.3-.89-.07-.02-.1.04-.15.07-.14.09-1.65,1.61-1.71,1.71-.04.08-.04.08,0,.16.14.27,1.03.97,1.31,1.3.47.56.83,1.19.77,1.95.4-.25.88-.74,1.34-.33.78.7-.86,1.42-1.31,1.87-4.96,4.91.86,13.08,7.12,9.97,5.79-2.87,3.7-11.74-2.73-11.76-.51,0-1.48.36-1.51-.52s1.97-.68,2.56-.6c1.19.18,2.33.68,3.3,1.37ZM21.42,36.04l-1.95-11.22c-1.18.99-2.61,1.62-4.15,1.79l2.03,9.43h4.07ZM11.49,37.26h-4.03c-.3.75-.88,1.64-1.1,2.39-.13.45-.18.72.37.78.81.09,2.68.08,3.5,0,.33-.03.56-.12.69-.45.29-.71.35-1.96.56-2.73ZM17.67,37.26c.22.77.27,2.02.56,2.73.14.33.37.42.69.45.82.08,2.69.09,3.5,0,.55-.06.5-.33.37-.78-.22-.75-.8-1.65-1.1-2.39h-4.03Z"/>
      <path class="cls-1" d="M13.43.11c3.71-.5,5.11,1.05,4.82,4.66-.33,4.12-6.25,4.51-7.2.69-.51-2.02-.14-5.01,2.38-5.35ZM13.51,1.33c-1.53.26-1.47,2.17-1.36,3.36.25,2.95,4.63,2.94,4.89,0,.1-1.17.18-2.95-1.24-3.32-.41-.11-1.85-.11-2.28-.04Z"/>
      <path class="cls-1" d="M17.25,15.81c1.76-.1,2.52,1.83,1.4,3.2-.51.62-3.42,3.55-3.98,3.82-.65.31-1.27.29-1.9-.06-.49-.27-2.8-2.59-3.03-3.07-.87-1.82,1.19-3.44,2.77-2.28.22.16,1.14,1.24,1.29,1.21.96-.71,2.23-2.76,3.45-2.82ZM17.81,17.19c-.26-.22-.61-.16-.87.02-.85.57-1.75,1.97-2.6,2.6-.32.24-.64.3-1.01.11-.58-.3-1.66-2.26-2.41-1.5-.34.35-.12.71.12,1.02.39.49,1.63,1.74,2.12,2.11.54.41.81.33,1.3-.08.68-.56,2.82-2.64,3.29-3.3.21-.3.4-.7.06-.99Z"/>
    </g>
  </g>
</svg>